<?xml version="1.0" encoding="iso-8859-1"?>
<!-- Generator: Adobe Illustrator 16.0.0, SVG Export Plug-In . SVG Version: 6.00 Build 0)  -->
<!DOCTYPE svg PUBLIC "-//W3C//DTD SVG 1.1//EN" "http://www.w3.org/Graphics/SVG/1.1/DTD/svg11.dtd">
<svg version="1.1" id="Capa_1" xmlns="http://www.w3.org/2000/svg" xmlns:xlink="http://www.w3.org/1999/xlink" x="0px" y="0px"
	 width="380.721px" height="380.721px" viewBox="0 0 380.721 380.721" style="enable-background:new 0 0 380.721 380.721;"
	 xml:space="preserve">
<g>
	<g>
		<path d="M360.698,290.932l-97.946-32.928c-2.207-0.732-4.508-1.115-6.831-1.115h-81.656L41.87,127.695
			c-8.482-8.278-22.07-8.116-30.372,0.36c-8.284,8.494-8.127,22.082,0.354,30.383l138.651,135.306
			c4.014,3.927,9.388,6.123,15.005,6.123h9.557v53.701h-28.274c-0.987,0-1.783,0.813-1.783,1.79v23.574
			c0,0.976,0.796,1.789,1.783,1.789h128.218c0.988,0,1.801-0.813,1.801-1.789v-23.574c0-0.977-0.812-1.79-1.801-1.79h-33.717
			v-53.701h11.119l94.588,31.8c2.277,0.744,4.589,1.139,6.854,1.139c8.97,0,17.347-5.682,20.356-14.65
			C377.986,306.884,371.945,294.719,360.698,290.932z"/>
		<path d="M165.452,68.661c0.296,0.192,0.627,0.285,0.976,0.285c0.227,0,0.424-0.035,0.639-0.116
			c0.535-0.203,0.941-0.656,1.098-1.203c0.046-0.215,4.328-16.858-5.415-28.948l13.274-24.353h72.727v162.911
			c0,3.95,3.219,7.163,7.169,7.163c3.962,0,7.157-3.212,7.157-7.163v-11.648h110.109c0.988,0,1.79-0.796,1.79-1.783v-30.139
			c0-0.987-0.802-1.783-1.79-1.783h-15.812v-7.32c0-0.982-0.79-1.784-1.777-1.784h-7.309c-0.987,0-1.789,0.802-1.789,1.784v7.308
			h-6.123v-7.308c0-0.982-0.802-1.784-1.789-1.784h-7.32c-0.987,0-1.789,0.802-1.789,1.784v7.308h-5.81v-7.308
			c0-0.982-0.802-1.784-1.789-1.784h-7.296c-0.988,0-1.802,0.802-1.802,1.784v7.308h-7.936v-7.308c0-0.982-0.79-1.784-1.777-1.784
			h-7.308c-0.988,0-1.79,0.802-1.79,1.784v7.308h-5.81v-7.308c0-0.982-0.801-1.784-1.789-1.784h-7.308
			c-0.987,0-1.778,0.802-1.778,1.784v7.308h-14.186V7.163C263.066,3.201,259.882,0,255.92,0h-84.143
			c-2.614,0-5.031,1.441-6.28,3.735l-14.418,26.438c-4.56-1.963-9.341-2.998-14.302-2.998c-12.183,0-21.083,5.925-21.466,6.169
			c-0.511,0.337-0.796,0.895-0.796,1.504c0.012,0.604,0.313,1.162,0.825,1.487L165.452,68.661z"/>
		<path d="M97.872,150.526c20.466,0,37.098-16.644,37.098-37.104c0-20.455-16.632-37.098-37.098-37.098
			c-20.461,0-37.099,16.644-37.099,37.098C60.773,133.871,77.422,150.526,97.872,150.526z"/>
		<path d="M359.593,232.955l-79.007-30.139c-2.451-0.941-5.042-1.395-7.668-1.395h-73.36l-51.442-49.705
			c-8.522-8.232-22.127-8.005-30.388,0.523c-8.232,8.545-8.006,22.133,0.534,30.389l57.692,55.729
			c4.009,3.868,9.365,6.029,14.93,6.029h78.084l75.301,28.71c2.521,0.964,5.1,1.429,7.645,1.429c8.668,0,16.812-5.274,20.089-13.838
			C376.232,249.592,370.667,237.161,359.593,232.955z"/>
	</g>
</g>
<g>
</g>
<g>
</g>
<g>
</g>
<g>
</g>
<g>
</g>
<g>
</g>
<g>
</g>
<g>
</g>
<g>
</g>
<g>
</g>
<g>
</g>
<g>
</g>
<g>
</g>
<g>
</g>
<g>
</g>
</svg>
