<?xml version="1.0" encoding="UTF-8" standalone="no"?>
<!-- Generator: Adobe Illustrator 18.0.0, SVG Export Plug-In . SVG Version: 6.00 Build 0)  -->

<svg
   xmlns:dc="http://purl.org/dc/elements/1.1/"
   xmlns:cc="http://creativecommons.org/ns#"
   xmlns:rdf="http://www.w3.org/1999/02/22-rdf-syntax-ns#"
   xmlns:svg="http://www.w3.org/2000/svg"
   xmlns="http://www.w3.org/2000/svg"
   xmlns:sodipodi="http://sodipodi.sourceforge.net/DTD/sodipodi-0.dtd"
   xmlns:inkscape="http://www.inkscape.org/namespaces/inkscape"
   version="1.1"
   id="Capa_1"
   x="0px"
   y="0px"
   viewBox="0 0 182.492 182.492"
   style="enable-background:new 0 0 182.492 182.492;"
   xml:space="preserve"
   width="512px"
   height="512px"
   inkscape:version="0.91 r13725"
   sodipodi:docname="site-logo.svg"
   inkscape:export-filename="/home/rbk/Downloads/rk/t1new.png"
   inkscape:export-xdpi="90"
   inkscape:export-ydpi="90"><metadata
     id="metadata39"><rdf:RDF><cc:Work
         rdf:about=""><dc:format>image/svg+xml</dc:format><dc:type
           rdf:resource="http://purl.org/dc/dcmitype/StillImage" /></cc:Work></rdf:RDF></metadata><defs
     id="defs37"><clipPath
       clipPathUnits="userSpaceOnUse"
       id="clipPath5936"><rect
         style="fill:#ff7f2a;fill-opacity:1;stroke:none;stroke-width:2.80599999;stroke-miterlimit:4;stroke-dasharray:none"
         id="rect5938"
         width="150.01462"
         height="136.869"
         x="70.367676"
         y="-44.076458" /></clipPath><clipPath
       clipPathUnits="userSpaceOnUse"
       id="clipPath5972"><rect
         style="fill:#ff7f2a;fill-opacity:1;stroke:none;stroke-width:2.80599999;stroke-miterlimit:4;stroke-dasharray:none"
         id="rect5974"
         width="146.14825"
         height="136.869"
         x="-443.85767"
         y="-225.02191" /></clipPath><clipPath
       clipPathUnits="userSpaceOnUse"
       id="clipPath6015"><rect
         style="fill:#ff7f2a;fill-opacity:1;stroke:none;stroke-width:2.80599999;stroke-miterlimit:4;stroke-dasharray:none"
         id="rect6017"
         width="133.00266"
         height="156.97406"
         x="-435.35165"
         y="-93.565811" /></clipPath><clipPath
       clipPathUnits="userSpaceOnUse"
       id="clipPath6036"><rect
         style="fill:#ff7f2a;fill-opacity:1;stroke:none;stroke-width:2.80599999;stroke-miterlimit:4;stroke-dasharray:none"
         id="rect6038"
         width="106.71143"
         height="74.234032"
         x="-358.79782"
         y="-88.926186" /></clipPath><clipPath
       clipPathUnits="userSpaceOnUse"
       id="clipPath6054"><rect
         style="fill:#ff7f2a;fill-opacity:1;stroke:none;stroke-width:2.80599999;stroke-miterlimit:4;stroke-dasharray:none"
         id="rect6056"
         width="114.20152"
         height="117.53723"
         x="97.49054"
         y="-7.7326913" /></clipPath></defs><sodipodi:namedview
     pagecolor="#ffffff"
     bordercolor="#666666"
     borderopacity="1"
     objecttolerance="10"
     gridtolerance="10"
     guidetolerance="10"
     inkscape:pageopacity="0"
     inkscape:pageshadow="2"
     inkscape:window-width="1855"
     inkscape:window-height="1056"
     id="namedview35"
     showgrid="true"
     inkscape:zoom="0.4609375"
     inkscape:cx="-560.19019"
     inkscape:cy="160.07748"
     inkscape:window-x="65"
     inkscape:window-y="24"
     inkscape:window-maximized="1"
     inkscape:current-layer="Capa_1" /><g
     id="g5"
     style="fill:#57babf;fill-opacity:1" /><g
     id="g7"
     style="fill:#57babf;fill-opacity:1" /><g
     id="g9"
     style="fill:#57babf;fill-opacity:1" /><g
     id="g11"
     style="fill:#57babf;fill-opacity:1" /><g
     id="g13"
     style="fill:#57babf;fill-opacity:1" /><g
     id="g15"
     style="fill:#57babf;fill-opacity:1" /><g
     id="g17"
     style="fill:#57babf;fill-opacity:1" /><g
     id="g19"
     style="fill:#57babf;fill-opacity:1" /><g
     id="g21"
     style="fill:#57babf;fill-opacity:1" /><g
     id="g23"
     style="fill:#57babf;fill-opacity:1" /><g
     id="g25"
     style="fill:#57babf;fill-opacity:1" /><g
     id="g27"
     style="fill:#57babf;fill-opacity:1" /><g
     id="g29"
     style="fill:#57babf;fill-opacity:1" /><g
     id="g31"
     style="fill:#57babf;fill-opacity:1" /><g
     id="g33"
     style="fill:#57babf;fill-opacity:1" /><path
     inkscape:connector-curvature="0"
     style="fill:#52babf;fill-opacity:1"
     d="m 124.49581,59.794618 c -3.86852,-7.07706 -7.93283,-10.373155 -12.79017,-10.373155 -3.14482,0 -6.19652,1.369561 -9.14241,2.691229 l -0.0975,0.04358 c -3.142841,1.40131 -6.111305,2.725667 -9.31439,2.725667 -3.209821,0 -6.355836,-1.433598 -9.417831,-2.827914 -3.003739,-1.356645 -6.109326,-2.758495 -9.218098,-2.758495 -4.881508,0 -8.850298,3.362826 -12.488144,10.579256 -5.722518,11.316512 -2.473458,23.434838 0.147429,33.207963 1.167167,4.348157 2.269353,8.454688 2.269353,11.555438 0,15.92083 2.472656,42.86378 11.740685,42.86378 6.342762,0 8.294255,-10.00666 10.02064,-18.86012 1.833,-9.32002 3.420273,-15.91706 7.171084,-15.91706 3.235978,0 4.474091,4.27121 6.190568,14.51037 1.485414,8.946 3.333874,20.07847 11.129184,20.07847 10.87711,0 11.72246,-32.68006 11.72246,-42.69589 0,-2.93985 1.06571,-7.011935 2.19444,-11.323503 l 0.0448,-0.1722 c 2.59673,-9.97439 5.82834,-22.387077 -0.16209,-33.327426 z m -5.44273,30.636738 -0.0412,0.159282 c -1.3051,4.985852 -2.53766,9.695102 -2.53766,14.026562 0,9.50623 -0.73638,18.72076 -2.02086,25.2812 -1.50048,7.66418 -3.22093,9.34265 -3.75715,9.34265 -2.38746,0 -3.53323,-2.96246 -5.33612,-13.81996 -1.46951,-8.76519 -3.48166,-20.76944 -11.983582,-20.76944 -8.605776,0 -11.096273,12.66131 -12.922529,21.94851 -0.996361,5.10855 -2.501592,12.82868 -4.268809,12.82868 -0.274249,0 -2.001029,-1.61871 -3.581963,-9.31141 -1.406952,-6.84513 -2.213469,-16.13231 -2.213469,-25.4803 0,-4.52575 -1.276958,-9.28289 -2.63753,-14.35215 -2.366446,-8.824922 -4.813351,-17.950675 -0.820787,-25.846235 3.140071,-6.231104 5.596084,-7.07114 7.584039,-7.07114 2.14649,0 4.670283,1.139247 7.346263,2.347366 3.332288,1.518082 7.108851,3.239049 11.289271,3.239049 4.153867,0 7.881296,-1.661774 11.169606,-3.128196 l 0.10264,-0.04572 c 2.61971,-1.175824 5.09475,-2.286007 7.28245,-2.286007 2.04147,0 4.59063,0.844873 8.01803,7.114718 4.10234,7.490892 1.67606,16.810362 -0.67058,25.822565 z"
     id="path3-5-3" /><path
     inkscape:connector-curvature="0"
     style="fill:#418c90;fill-opacity:1"
     d="m 141.99541,41.755025 c -6.0782,-9.918993 -12.46403,-14.538699 -20.09584,-14.538699 -4.94116,0 -9.73598,1.919542 -14.36454,3.771946 l -0.1532,0.0611 c -4.93802,1.964036 -9.602068,3.820214 -14.634737,3.820214 -5.043258,0 -9.986264,-2.009291 -14.797262,-3.963521 -4.719455,-1.901437 -9.598936,-3.866225 -14.483428,-3.866225 -7.669803,0 -13.905566,4.713237 -19.621328,14.827574 -8.991207,15.860886 -3.886293,32.845581 0.23163,46.543313 1.833861,6.094239 3.5656,11.849848 3.5656,16.195768 0,22.31415 3.885043,60.07661 18.446935,60.07661 9.965716,0 13.031907,-14.02507 15.744384,-26.43381 2.880016,-13.06265 5.373932,-22.30887 11.267192,-22.30887 5.084334,0 7.029674,5.98639 9.726574,20.3373 2.33389,12.53845 5.23818,28.14139 17.48613,28.14139 17.09007,0 18.41829,-45.80341 18.41829,-59.84129 0,-4.1204 1.67443,-9.827719 3.44788,-15.870685 l 0.0703,-0.241352 c 4.07997,-13.979819 9.15747,-31.377083 -0.25468,-46.710757 z m -8.55159,42.939559 -0.0648,0.223259 c -2.05054,6.988016 -3.98715,13.588349 -3.98715,19.659217 0,13.32363 -1.15698,26.23845 -3.17516,35.43336 -2.35755,10.74188 -5.0607,13.09437 -5.90323,13.09437 -3.75115,0 -5.5514,-4.15209 -8.38406,-19.36962 -2.3089,-12.28503 -5.4704,-29.10983 -18.82858,-29.10983 -13.521357,0 -17.434418,17.74572 -20.303824,30.76237 -1.565471,7.16 -3.930488,17.98029 -6.707133,17.98029 -0.430894,0 -3.144012,-2.26873 -5.627969,-13.05058 -2.210612,-9.59392 -3.477798,-22.61058 -3.477798,-35.71244 0,-6.343147 -2.006356,-13.010621 -4.144081,-20.115552 -3.718146,-12.368757 -7.562724,-25.159134 -1.289614,-36.225321 4.933666,-8.73333 8.792541,-9.910697 11.916016,-9.910697 3.372544,0 7.337932,1.596723 11.54243,3.289989 5.235661,2.127708 11.169387,4.539763 17.737651,4.539763 6.526549,0 12.383052,-2.329089 17.549642,-4.384388 l 0.16124,-0.0641 c 4.11609,-1.648013 8.00487,-3.204007 11.44218,-3.204007 3.20753,0 7.21277,1.184156 12.59792,9.97179 6.44555,10.499006 2.63342,23.560909 -1.05363,36.19214 z"
     id="path3-5-3-9" /><path
     inkscape:connector-curvature="0"
     style="fill:#2f6669;fill-opacity:1"
     d="M 161.56237,21.968046 C 153.01452,8.9842076 144.03405,2.93708 133.30134,2.93708 c -6.94879,0 -13.69181,2.5126601 -20.20102,4.937442 l -0.21546,0.079872 c -6.94438,2.570888 -13.503475,5.000589 -20.580981,5.000589 -7.092397,0 -14.04382,-2.630124 -20.809572,-5.1881819 -6.637023,-2.4889584 -13.4991,-5.0608445 -20.36822,-5.0608445 -10.78613,0 -19.555556,6.1695556 -27.593708,19.4091084 -12.644437,20.761662 -5.465331,42.994432 0.325753,60.924576 2.578965,7.977266 5.014353,15.511278 5.014353,21.200039 0,29.20891 5.463562,78.63945 25.942117,78.63945 14.01492,0 18.326933,-18.35862 22.141541,-34.60147 4.050179,-17.09883 7.557406,-29.20202 15.845174,-29.20202 7.150166,0 9.885923,7.8361 13.678593,26.62127 3.28218,16.41266 7.36653,36.83668 24.59096,36.83668 24.03396,0 25.90187,-59.95606 25.90187,-78.33143 0,-5.393563 2.35476,-12.864363 4.84879,-20.774525 l 0.0989,-0.315926 C 167.65815,64.81232 174.7987,42.03951 161.56228,21.967939 Z m -12.02621,56.207303 -0.0912,0.292247 c -2.8837,9.147229 -5.60719,17.786963 -5.60719,25.733664 0,17.44043 -1.62708,34.34579 -4.46527,46.38181 -3.31543,14.06094 -7.11695,17.14036 -8.30177,17.14036 -5.27529,0 -7.80699,-5.43506 -11.79061,-25.35459 -3.24704,-16.08093 -7.69307,-38.10438 -26.478845,-38.10438 -19.01524,0 -24.518229,23.22887 -28.553507,40.26753 -2.201555,9.3723 -5.527505,23.53596 -9.432328,23.53596 -0.605982,0 -4.421469,-2.96973 -7.914675,-17.08303 -3.108795,-12.55833 -4.890875,-29.59695 -4.890875,-46.74714 0,-8.303093 -2.821557,-17.030705 -5.827862,-26.330955 C 30.953198,61.716269 25.546535,44.973854 34.368474,30.488353 41.306745,19.056533 46.73354,17.515374 51.126109,17.515374 c 4.742871,0 10.319416,2.090085 16.232243,4.306542 7.362998,2.785151 15.707674,5.942506 24.944692,5.942506 9.178346,0 17.414436,-3.048755 24.680266,-5.739102 l 0.22675,-0.08388 c 5.78851,-2.157232 11.25733,-4.193998 16.09128,-4.193998 4.5108,0 10.14339,1.550035 17.7166,13.052925 9.06446,13.743044 3.7034,30.84092 -1.48172,47.375025 z"
     id="path3-5-3-9-1-0" /></svg>