<?xml version="1.0" encoding="UTF-8" standalone="no"?>
<!-- Generator: Adobe Illustrator 18.0.0, SVG Export Plug-In . SVG Version: 6.00 Build 0)  -->

<svg
   xmlns:dc="http://purl.org/dc/elements/1.1/"
   xmlns:cc="http://creativecommons.org/ns#"
   xmlns:rdf="http://www.w3.org/1999/02/22-rdf-syntax-ns#"
   xmlns:svg="http://www.w3.org/2000/svg"
   xmlns="http://www.w3.org/2000/svg"
   xmlns:sodipodi="http://sodipodi.sourceforge.net/DTD/sodipodi-0.dtd"
   xmlns:inkscape="http://www.inkscape.org/namespaces/inkscape"
   version="1.1"
   id="Capa_1"
   x="0px"
   y="0px"
   viewBox="0 0 182.492 182.492"
   style="enable-background:new 0 0 182.492 182.492;"
   xml:space="preserve"
   width="512px"
   height="512px"
   inkscape:version="0.91 r13725"
   sodipodi:docname="site-logo (copy).svg"
   inkscape:export-filename="/home/rbk/Downloads/rk/t1new.png"
   inkscape:export-xdpi="90"
   inkscape:export-ydpi="90"><metadata
     id="metadata39"><rdf:RDF><cc:Work
         rdf:about=""><dc:format>image/svg+xml</dc:format><dc:type
           rdf:resource="http://purl.org/dc/dcmitype/StillImage" /></cc:Work></rdf:RDF></metadata><defs
     id="defs37"><clipPath
       clipPathUnits="userSpaceOnUse"
       id="clipPath5936"><rect
         style="fill:#ff7f2a;fill-opacity:1;stroke:none;stroke-width:2.80599999;stroke-miterlimit:4;stroke-dasharray:none"
         id="rect5938"
         width="150.01462"
         height="136.869"
         x="70.367676"
         y="-44.076458" /></clipPath><clipPath
       clipPathUnits="userSpaceOnUse"
       id="clipPath5972"><rect
         style="fill:#ff7f2a;fill-opacity:1;stroke:none;stroke-width:2.80599999;stroke-miterlimit:4;stroke-dasharray:none"
         id="rect5974"
         width="146.14825"
         height="136.869"
         x="-443.85767"
         y="-225.02191" /></clipPath><clipPath
       clipPathUnits="userSpaceOnUse"
       id="clipPath6015"><rect
         style="fill:#ff7f2a;fill-opacity:1;stroke:none;stroke-width:2.80599999;stroke-miterlimit:4;stroke-dasharray:none"
         id="rect6017"
         width="133.00266"
         height="156.97406"
         x="-435.35165"
         y="-93.565811" /></clipPath><clipPath
       clipPathUnits="userSpaceOnUse"
       id="clipPath6036"><rect
         style="fill:#ff7f2a;fill-opacity:1;stroke:none;stroke-width:2.80599999;stroke-miterlimit:4;stroke-dasharray:none"
         id="rect6038"
         width="106.71143"
         height="74.234032"
         x="-358.79782"
         y="-88.926186" /></clipPath><clipPath
       clipPathUnits="userSpaceOnUse"
       id="clipPath6054"><rect
         style="fill:#ff7f2a;fill-opacity:1;stroke:none;stroke-width:2.80599999;stroke-miterlimit:4;stroke-dasharray:none"
         id="rect6056"
         width="114.20152"
         height="117.53723"
         x="97.49054"
         y="-7.7326913" /></clipPath></defs><sodipodi:namedview
     pagecolor="#ffffff"
     bordercolor="#666666"
     borderopacity="1"
     objecttolerance="10"
     gridtolerance="10"
     guidetolerance="10"
     inkscape:pageopacity="0"
     inkscape:pageshadow="2"
     inkscape:window-width="1855"
     inkscape:window-height="1056"
     id="namedview35"
     showgrid="true"
     inkscape:zoom="0.65186406"
     inkscape:cx="-12.857503"
     inkscape:cy="139.82716"
     inkscape:window-x="65"
     inkscape:window-y="24"
     inkscape:window-maximized="1"
     inkscape:current-layer="Capa_1" /><g
     id="g5"
     style="fill:#57babf;fill-opacity:1" /><g
     id="g7"
     style="fill:#57babf;fill-opacity:1" /><g
     id="g9"
     style="fill:#57babf;fill-opacity:1" /><g
     id="g11"
     style="fill:#57babf;fill-opacity:1" /><g
     id="g13"
     style="fill:#57babf;fill-opacity:1" /><g
     id="g15"
     style="fill:#57babf;fill-opacity:1" /><g
     id="g17"
     style="fill:#57babf;fill-opacity:1" /><g
     id="g19"
     style="fill:#57babf;fill-opacity:1" /><g
     id="g21"
     style="fill:#57babf;fill-opacity:1" /><g
     id="g23"
     style="fill:#57babf;fill-opacity:1" /><g
     id="g25"
     style="fill:#57babf;fill-opacity:1" /><g
     id="g27"
     style="fill:#57babf;fill-opacity:1" /><g
     id="g29"
     style="fill:#57babf;fill-opacity:1" /><g
     id="g31"
     style="fill:#57babf;fill-opacity:1" /><g
     id="g33"
     style="fill:#57babf;fill-opacity:1" /><path
     style="opacity:1;fill:#52babf;fill-opacity:1;stroke:none;stroke-width:2.80599999;stroke-miterlimit:4;stroke-dasharray:none"
     d="m 51.453456,162.48059 c -1.83516,-3.03593 -4.51937,-10.40863 -5.93159,-16.29217 -2.33345,-9.72159 -3.71097,-21.74922 -4.38071,-38.24966 -0.58635,-14.445663 -1.04805,-16.823023 -6.31831,-32.533733 -5.88689,-17.54884 -7.5794,-26.67968 -6.3763,-34.39897 1.18758,-7.61966 4.85679,-14.55505 10.73175,-20.28473 6.41497,-6.25633 11.02664,-6.60494 24.89134,-1.88162 26.5535,9.04604 32.53799,9.15499 55.848394,1.01671 17.43242,-6.08613 23.55627,-5.18539 31.62157,4.65113 6.578,8.0226 8.49591,13.78335 8.02521,24.105 -0.3297,7.22991 -1.92593,13.91156 -7.18583,30.07928 -4.28281,13.16441 -4.66809,15.37211 -5.24707,30.067103 -0.98501,25.00047 -4.00525,42.46083 -8.9648,51.82658 -2.80024,5.28806 -4.82399,5.95835 -8.19797,2.71526 -2.82033,-2.71092 -4.41835,-7.36564 -8.08601,-23.55308 -5.28323,-23.31788 -9.53588,-31.42764 -18.75016,-35.75641 -3.504634,-1.64644 -4.266324,-1.79377 -9.273624,-1.79377 -4.87665,0 -5.81934,0.17052 -8.88598,1.60734 -6.56236,3.07468 -11.75156,9.67672 -15.56166,19.79861 -1.1152,2.96258 -3.65025,11.53786 -5.63344,19.05616 -5.94065,22.52101 -8.35025,26.39618 -12.32481,19.82097 z"
     id="path4166"
     inkscape:connector-curvature="0" /><path
     style="opacity:1;fill:#418c90;fill-opacity:1;stroke:none;stroke-width:2.80599999;stroke-miterlimit:4;stroke-dasharray:none"
     d="m 58.554097,148.70979 c -4.8364,-5.9938 -8.01148,-20.69126 -9.26533,-42.88923 -0.64253,-11.375034 -0.56106,-11.028049 -6.80474,-28.979617 -5.04751,-14.51237 -5.1871,-22.339427 -0.53437,-29.962457 2.84724,-4.664934 7.87098,-9.071697 11.67902,-10.244707 3.77235,-1.162025 6.62365,-0.70901 18.48189,2.936388 11.19241,3.440711 14.93063,4.153745 21.54896,4.110285 6.384453,-0.04192 10.922783,-0.946153 21.808433,-4.345162 5.78032,-1.80488 9.34435,-2.58178 12.76475,-2.782503 4.44787,-0.26102 4.93636,-0.174005 7.79293,1.388144 3.80397,2.080239 9.03659,7.598324 10.96272,11.560746 1.03342,2.125967 1.55088,4.634559 1.76565,8.55973 0.35448,6.478994 -0.49964,10.483624 -4.96409,23.274524 -1.65013,4.727733 -3.32326,9.648798 -3.71807,10.935709 -0.39482,1.286904 -1.15172,8.77825 -1.682,16.64743 -1.06363,15.78336 -2.24764,23.52895 -4.78988,31.33416 -2.08823,6.41135 -4.43115,9.85696 -6.70244,9.85696 -3.59999,0 -5.87251,-4.54931 -9.47227,-18.96237 -3.59341,-14.38761 -5.97678,-19.89644 -10.52236,-24.32105 -4.53225,-4.41166 -13.696123,-6.15207 -20.022413,-3.80267 -8.31815,3.0891 -13.12365,10.70511 -18.32488,29.04217 -3.27235,11.53681 -4.83461,15.58178 -6.68995,17.32154 l -1.57373,1.4757 -1.73783,-2.15372 z"
     id="path4168"
     inkscape:connector-curvature="0" /><path
     style="opacity:1;fill:#2f6669;fill-opacity:1;stroke:none;stroke-width:2.80599999;stroke-miterlimit:4;stroke-dasharray:none"
     d="M 66.211601,134.16527 C 62.783674,128.75097 60.943137,120.67021 60.015738,106.9627 59.388568,97.692731 59.040657,96.093018 55.853695,87.82521 51.775985,77.246573 50.800072,72.407502 51.78563,67.653645 c 0.80959,-3.905075 4.485325,-8.936351 8.281429,-11.335459 3.37055,-2.130161 6.715044,-1.971875 16.744214,0.792456 14.566271,4.014887 19.02117,4.028317 33.784587,0.101851 10.95183,-2.912742 14.05712,-2.920743 18.20143,-0.0469 1.70327,1.181127 4.16329,3.580147 5.46668,5.331157 2.1887,2.940333 2.36495,3.643341 2.30619,9.198294 -0.055,5.1944 -0.54922,7.282276 -3.62428,15.309989 -3.24635,8.474907 -3.62101,10.166754 -4.24474,19.168107 -1.02422,14.78068 -2.72077,22.51231 -6.11617,27.87292 -0.86003,1.35778 -1.70128,1.92365 -2.67573,1.79986 -2.43139,-0.30888 -4.25064,-3.21719 -6.09627,-9.74573 -5.22043,-18.46635 -8.8255,-23.47772 -17.562114,-24.41295 -4.185591,-0.44806 -6.735964,0.0737 -10.217517,2.09012 -5.327526,3.08563 -7.98832,7.74086 -12.444716,21.77276 -3.271016,10.29948 -5.018542,12.3403 -7.377022,8.61515 z"
     id="path4170"
     inkscape:connector-curvature="0" /></svg>