<?xml version="1.0" encoding="UTF-8" standalone="no"?>
<!-- Generator: Adobe Illustrator 18.0.0, SVG Export Plug-In . SVG Version: 6.00 Build 0)  -->

<svg
   xmlns:dc="http://purl.org/dc/elements/1.1/"
   xmlns:cc="http://creativecommons.org/ns#"
   xmlns:rdf="http://www.w3.org/1999/02/22-rdf-syntax-ns#"
   xmlns:svg="http://www.w3.org/2000/svg"
   xmlns="http://www.w3.org/2000/svg"
   xmlns:sodipodi="http://sodipodi.sourceforge.net/DTD/sodipodi-0.dtd"
   xmlns:inkscape="http://www.inkscape.org/namespaces/inkscape"
   version="1.1"
   id="Capa_1"
   x="0px"
   y="0px"
   viewBox="0 0 182.492 182.492"
   style="enable-background:new 0 0 182.492 182.492;"
   xml:space="preserve"
   width="512px"
   height="512px"
   inkscape:version="0.91 r13725"
   sodipodi:docname="site-logo.svg"
   inkscape:export-filename="/home/rbk/katkam/lakshin/cng/cdac/static/dental_studio/images/favicon.ico"
   inkscape:export-xdpi="90"
   inkscape:export-ydpi="90"><metadata
     id="metadata39"><rdf:RDF><cc:Work
         rdf:about=""><dc:format>image/svg+xml</dc:format><dc:type
           rdf:resource="http://purl.org/dc/dcmitype/StillImage" /></cc:Work></rdf:RDF></metadata><defs
     id="defs37"><clipPath
       clipPathUnits="userSpaceOnUse"
       id="clipPath5936"><rect
         style="fill:#ff7f2a;fill-opacity:1;stroke:none;stroke-width:2.80599999;stroke-miterlimit:4;stroke-dasharray:none"
         id="rect5938"
         width="150.01462"
         height="136.869"
         x="70.367676"
         y="-44.076458" /></clipPath><clipPath
       clipPathUnits="userSpaceOnUse"
       id="clipPath5972"><rect
         style="fill:#ff7f2a;fill-opacity:1;stroke:none;stroke-width:2.80599999;stroke-miterlimit:4;stroke-dasharray:none"
         id="rect5974"
         width="146.14825"
         height="136.869"
         x="-443.85767"
         y="-225.02191" /></clipPath><clipPath
       clipPathUnits="userSpaceOnUse"
       id="clipPath6015"><rect
         style="fill:#ff7f2a;fill-opacity:1;stroke:none;stroke-width:2.80599999;stroke-miterlimit:4;stroke-dasharray:none"
         id="rect6017"
         width="133.00266"
         height="156.97406"
         x="-435.35165"
         y="-93.565811" /></clipPath><clipPath
       clipPathUnits="userSpaceOnUse"
       id="clipPath6036"><rect
         style="fill:#ff7f2a;fill-opacity:1;stroke:none;stroke-width:2.80599999;stroke-miterlimit:4;stroke-dasharray:none"
         id="rect6038"
         width="106.71143"
         height="74.234032"
         x="-358.79782"
         y="-88.926186" /></clipPath><clipPath
       clipPathUnits="userSpaceOnUse"
       id="clipPath6054"><rect
         style="fill:#ff7f2a;fill-opacity:1;stroke:none;stroke-width:2.80599999;stroke-miterlimit:4;stroke-dasharray:none"
         id="rect6056"
         width="114.20152"
         height="117.53723"
         x="97.49054"
         y="-7.7326913" /></clipPath></defs><sodipodi:namedview
     pagecolor="#ffffff"
     bordercolor="#666666"
     borderopacity="1"
     objecttolerance="10"
     gridtolerance="10"
     guidetolerance="10"
     inkscape:pageopacity="0"
     inkscape:pageshadow="2"
     inkscape:window-width="1855"
     inkscape:window-height="1056"
     id="namedview35"
     showgrid="true"
     inkscape:zoom="1.3037281"
     inkscape:cx="53.032027"
     inkscape:cy="241.12509"
     inkscape:window-x="65"
     inkscape:window-y="24"
     inkscape:window-maximized="1"
     inkscape:current-layer="Capa_1" /><path
     inkscape:connector-curvature="0"
     style="fill:#529fc3;fill-opacity:1"
     d="M 162.95422,20.176206 C 154.09263,7.0007694 144.78255,0.86439239 133.65587,0.86439239 c -7.20381,0 -14.19432,2.54972811 -20.94245,5.01029081 l -0.22344,0.081145 C 105.2907,8.5646613 98.490841,11.03023 91.153564,11.03023 83.800879,11.03023 76.594292,8.3612871 69.580227,5.7654731 62.699579,3.2397927 55.585625,0.62995289 48.464403,0.62995289 c -11.182039,0 -20.273317,6.26060891 -28.606498,19.69551311 -13.1085173,21.068068 -5.665924,43.628882 0.33771,61.82361 2.673614,8.095014 5.198412,15.740183 5.198412,21.512884 0,29.63998 5.66407,79.79993 26.89427,79.79993 14.529298,0 18.99959,-18.62952 22.954199,-35.11206 4.198838,-17.35121 7.834778,-29.63298 16.426771,-29.63298 7.4126,0 10.248743,7.95175 14.180673,27.01412 3.40262,16.65487 7.63688,37.38029 25.49352,37.38029 24.9161,0 26.85256,-60.84082 26.85256,-79.48737 0,-5.473153 2.44122,-13.054199 5.02678,-21.081089 l 0.10272,-0.320586 c 5.9483,-18.569427 13.35094,-41.678255 -0.3713,-62.046018 z m -12.46762,57.036736 -0.0945,0.296533 c -2.98958,9.282217 -5.81299,18.049475 -5.81299,26.113395 0,17.69783 -1.68684,34.85263 -4.62917,47.06629 -3.43714,14.26846 -7.37817,17.3933 -8.60647,17.3933 -5.46895,0 -8.09355,-5.51523 -12.2234,-25.72877 -3.3662,-16.31822 -7.97541,-38.66668 -27.450694,-38.66668 -19.713209,0 -25.418166,23.5717 -29.60154,40.86177 -2.282343,9.51065 -5.730393,23.8833 -9.778524,23.8833 -0.628243,0 -4.583739,-3.01356 -8.205193,-17.33517 -3.2229,-12.74364 -5.070345,-30.03368 -5.070345,-47.43693 0,-8.425638 -2.925125,-17.282053 -6.041768,-26.719547 C 27.55118,60.510982 21.946059,43.521471 31.091798,28.822225 38.284733,17.221714 43.910695,15.657809 48.464485,15.657809 c 4.916962,0 10.698174,2.120948 16.82802,4.370117 7.633264,2.826229 16.284201,6.030171 25.860249,6.030171 9.515236,0 18.053636,-3.093743 25.586136,-5.823794 l 0.23511,-0.08513 c 6.00097,-2.189043 11.67052,-4.255884 16.68185,-4.255884 4.67637,0 10.51571,1.57291 18.36684,13.245546 9.39719,13.94587 3.83935,31.296027 -1.53609,48.074136 z"
     id="path3-5-3-7" /><g
     id="g5"
     style="fill:#57babf;fill-opacity:1"
     transform="matrix(1.1093019,0,0,1.0913909,-12.304512,-3.339733)" /><g
     id="g7"
     style="fill:#57babf;fill-opacity:1"
     transform="matrix(1.1093019,0,0,1.0913909,-12.304512,-3.339733)" /><g
     id="g9"
     style="fill:#57babf;fill-opacity:1"
     transform="matrix(1.1093019,0,0,1.0913909,-12.304512,-3.339733)" /><g
     id="g11"
     style="fill:#57babf;fill-opacity:1"
     transform="matrix(1.1093019,0,0,1.0913909,-12.304512,-3.339733)" /><g
     id="g13"
     style="fill:#57babf;fill-opacity:1"
     transform="matrix(1.1093019,0,0,1.0913909,-12.304512,-3.339733)" /><g
     id="g15"
     style="fill:#57babf;fill-opacity:1"
     transform="matrix(1.1093019,0,0,1.0913909,-12.304512,-3.339733)" /><g
     id="g17"
     style="fill:#57babf;fill-opacity:1"
     transform="matrix(1.1093019,0,0,1.0913909,-12.304512,-3.339733)" /><g
     id="g19"
     style="fill:#57babf;fill-opacity:1"
     transform="matrix(1.1093019,0,0,1.0913909,-12.304512,-3.339733)" /><g
     id="g21"
     style="fill:#57babf;fill-opacity:1"
     transform="matrix(1.1093019,0,0,1.0913909,-12.304512,-3.339733)" /><g
     id="g23"
     style="fill:#57babf;fill-opacity:1"
     transform="matrix(1.1093019,0,0,1.0913909,-12.304512,-3.339733)" /><g
     id="g25"
     style="fill:#57babf;fill-opacity:1"
     transform="matrix(1.1093019,0,0,1.0913909,-12.304512,-3.339733)" /><g
     id="g27"
     style="fill:#57babf;fill-opacity:1"
     transform="matrix(1.1093019,0,0,1.0913909,-12.304512,-3.339733)" /><g
     id="g29"
     style="fill:#57babf;fill-opacity:1"
     transform="matrix(1.1093019,0,0,1.0913909,-12.304512,-3.339733)" /><g
     id="g31"
     style="fill:#57babf;fill-opacity:1"
     transform="matrix(1.1093019,0,0,1.0913909,-12.304512,-3.339733)" /><g
     id="g33"
     style="fill:#57babf;fill-opacity:1"
     transform="matrix(1.1093019,0,0,1.0913909,-12.304512,-3.339733)" /><path
     inkscape:connector-curvature="0"
     style="fill:#2888b5;fill-opacity:1"
     d="M 145.13075,35.46769 C 138.48457,25.095549 131.50201,20.264776 123.157,20.264776 c -5.40285,0 -10.64574,2.007239 -15.70683,3.944282 l -0.16759,0.06381 c -5.39946,2.053752 -10.499346,3.994744 -16.002308,3.994744 -5.514523,0 -10.919448,-2.101088 -16.180015,-4.144597 -5.160473,-1.988301 -10.495931,-4.042862 -15.836861,-4.042862 -8.386519,0 -15.204977,4.928572 -21.45487,15.504979 -9.831384,16.585508 -4.249439,34.346147 0.253278,48.669658 2.005223,6.372653 3.898814,12.391199 3.898814,16.935667 0,23.3336 4.248047,62.82123 20.170705,62.82123 10.89698,0 14.249684,-14.66576 17.215649,-27.64142 3.149122,-13.65944 5.876082,-23.32806 12.320065,-23.32806 5.559463,0 7.686576,6.25988 10.635503,21.26641 2.55198,13.11129 5.72767,29.42703 19.12017,29.42703 18.68707,0 20.13941,-47.89593 20.13941,-62.57516 0,-4.308652 1.83091,-10.27671 3.77008,-16.595745 l 0.077,-0.252384 C 149.8704,69.693886 155.42238,51.50183 145.1307,35.467632 Z m -9.35069,44.901272 -0.0709,0.233447 c -2.24218,7.307262 -4.35974,14.209146 -4.35974,20.557351 0,13.93235 -1.26511,27.4372 -3.47187,37.05218 -2.57786,11.23265 -5.53362,13.69261 -6.45486,13.69261 -4.1017,0 -6.07016,-4.34177 -9.16755,-20.25455 -2.52464,-12.84627 -5.98157,-30.43975 -20.588037,-30.43975 -14.784886,0 -19.063598,18.55645 -22.201147,32.1678 -1.711764,7.48711 -4.297805,18.80173 -7.33389,18.80173 -0.471157,0 -3.4378,-2.37239 -6.1539,-13.64683 -2.417157,-10.03221 -3.802761,-23.64354 -3.802761,-37.34398 0,-6.632952 -2.193829,-13.605019 -4.531325,-21.034546 -4.065603,-12.933813 -8.26945,-26.308539 -1.410132,-37.88029 5.394694,-9.132312 9.61417,-10.363475 13.029525,-10.363475 3.687714,0 8.02363,1.669685 12.621007,3.440309 5.724947,2.224901 12.213141,4.747151 19.39518,4.747151 7.136434,0 13.54025,-2.43549 19.18961,-4.584682 l 0.17633,-0.06706 c 4.50072,-1.723287 8.75289,-3.350379 12.51139,-3.350379 3.50728,0 7.88679,1.238252 13.77515,10.427349 7.04788,10.978659 2.87948,24.637293 -1.15208,37.845598 z"
     id="path3-5-3-3-6" /><path
     style="opacity:1;fill:#247aa2;fill-opacity:1;stroke:#247aa2;stroke-width:2.49500799;stroke-linecap:round;stroke-miterlimit:4;stroke-dasharray:none;stroke-dashoffset:0;stroke-opacity:1"
     d="m 70.866811,134.59762 c -1.623713,-2.4381 -3.507382,-10.17117 -4.53154,-18.60346 -0.250608,-2.06337 -0.627702,-7.94986 -0.837989,-13.08109 -0.3183,-7.767027 -0.561175,-10.000899 -1.450182,-13.338244 -0.587316,-2.204797 -1.883596,-7.046907 -2.880624,-10.760251 -1.666975,-6.208521 -1.815534,-7.192721 -1.84711,-12.237144 -0.0403,-6.437999 0.615149,-8.716295 3.851044,-13.386017 3.929,-5.669942 6.2527,-5.963975 15.829634,-2.003009 5.490197,2.270709 8.484452,3.035655 11.967616,3.057373 3.95655,0.02466 6.599883,-0.61777 13.06542,-3.17546 8.36333,-3.308429 10.45735,-3.268849 13.96305,0.263931 3.0104,3.033653 5.29689,7.616787 5.8153,11.656432 0.58836,4.584612 -0.1005,9.217145 -3.07477,20.676557 l -2.57372,9.916307 -0.38274,9.283355 c -0.54046,13.10922 -1.52475,20.95532 -3.41438,27.21711 -1.13299,3.75443 -2.31884,5.57818 -3.5165,5.40806 -2.13521,-0.30331 -3.4771,-4.06162 -5.66447,-15.86488 -2.23123,-12.03977 -4.87758,-17.73786 -9.243429,-19.902803 -4.572043,-2.267185 -9.582805,-0.871563 -12.826711,3.572563 -2.688043,3.68259 -3.91643,7.45995 -7.544682,23.2003 -1.309565,5.68125 -2.608558,9.07237 -3.475241,9.07237 -0.31935,0 -0.871941,-0.43741 -1.227976,-0.972 z"
     id="path4290"
     inkscape:connector-curvature="0" /><path
     style="opacity:1;fill:#2888b5;fill-opacity:1;stroke:#2888b5;stroke-width:2.49500799;stroke-linecap:round;stroke-miterlimit:4;stroke-dasharray:none;stroke-dashoffset:0;stroke-opacity:1"
     d="M 60.921216,150.94099 C 59.019882,148.67158 56.749773,142.1442 55.293211,134.75847 53.610641,126.22671 52.76876,117.7456 52.387531,105.48671 52.056915,94.855293 51.788293,93.357891 47.983994,80.939837 44.824115,70.625315 43.756489,66.403807 43.151991,61.833608 41.94911,52.73945 43.302638,46.77413 48.193436,39.614762 c 3.093093,-4.52781 6.436605,-7.007218 9.991018,-7.408913 3.068742,-0.346808 5.714332,0.361929 16.656137,4.462073 13.386685,5.016295 19.859319,4.880925 35.119419,-0.734482 8.28094,-3.047222 10.61541,-3.644856 13.66013,-3.497054 3.29869,0.160131 5.25765,1.126074 8.2144,4.050444 3.92852,3.885528 6.70248,8.447971 7.87209,12.947578 1.70629,6.564251 0.91641,14.250214 -2.72797,26.544954 -5.54743,18.714918 -5.38531,17.911349 -5.74248,28.463018 -0.43016,12.70791 -1.11054,20.62408 -2.44909,28.49513 -1.32387,7.78465 -3.51935,14.612 -5.58912,17.38053 -0.94607,1.26548 -1.18482,1.41731 -2.22883,1.41731 -2.08953,0 -3.59033,-1.71396 -5.05491,-5.77284 l -0.82647,-2.29044 1.57912,-1.6427 c 4.79505,-4.98822 7.45761,-16.89692 8.20358,-36.69185 0.16699,-4.43091 0.37926,-8.660427 0.47173,-9.398913 0.0925,-0.738485 1.10897,-4.900864 2.25889,-9.249728 3.18623,-12.050068 3.4726,-13.731068 3.48194,-20.438911 0.007,-4.97769 -0.0765,-5.978539 -0.68402,-8.205401 -1.93787,-7.103409 -7.52992,-14.911189 -12.23767,-17.086593 -4.51504,-2.086354 -7.92042,-1.752282 -16.03319,1.57288 -5.390178,2.209258 -7.645144,2.808656 -10.614628,2.821493 -3.133775,0.01353 -4.189268,-0.266815 -10.766261,-2.859772 -6.545326,-2.58047 -8.415939,-3.054359 -11.388451,-2.885061 -4.408072,0.251059 -8.102958,2.733871 -11.496282,7.725035 -3.94563,5.803537 -5.437829,10.337306 -5.686171,17.276338 -0.112611,3.146608 -0.01621,5.30294 0.353543,7.907027 0.470176,3.311479 1.010964,5.544546 4.44391,18.350262 1.226589,4.575467 1.242562,4.70294 1.495848,11.935134 0.140809,4.02065 0.32812,8.04875 0.416249,8.95136 0.917814,9.40018 1.613105,13.94377 2.899409,18.94701 1.104197,4.29492 2.494208,7.78008 3.970464,9.95509 0.655858,0.9663 1.192467,1.94105 1.192467,2.16612 0,0.91151 -1.902192,5.94393 -2.816563,7.45147 -1.242615,2.0487 -1.933638,2.19262 -3.210458,0.66863 z"
     id="path4292"
     inkscape:connector-curvature="0" /><path
     style="opacity:1;fill:#529fc3;fill-opacity:1;stroke:#529fc3;stroke-width:2.49500775;stroke-linecap:round;stroke-miterlimit:4;stroke-dasharray:none;stroke-dashoffset:0;stroke-opacity:1"
     d="m 50.857134,167.06502 c -2.402141,-2.74371 -5.258903,-9.93531 -7.081971,-17.8281 -2.71528,-11.75557 -4.069785,-23.98174 -4.586518,-41.3993 C 38.824714,95.570616 38.330803,93.030081 33.305748,77.577852 27.794761,60.631366 26.462334,54.685955 26.450565,46.989361 c -0.01215,-7.94222 1.588803,-13.347372 5.847338,-19.741944 4.057051,-6.092017 7.980159,-9.595972 12.133521,-10.837148 2.61012,-0.779999 6.662073,-0.653185 10.497536,0.32854 2.664861,0.682098 12.861482,4.196494 12.683557,4.371549 -0.0562,0.0553 -1.392292,-0.161341 -2.96908,-0.481423 -3.441265,-0.69856 -7.38672,-0.754322 -9.854318,-0.139272 -0.994152,0.247793 -2.967574,1.009345 -4.385384,1.692337 -5.862401,2.824054 -12.730894,11.546916 -15.878792,20.165779 -1.913315,5.23861 -2.686991,12.344249 -2.038091,18.718361 0.663437,6.516952 1.937125,11.925015 5.516419,23.422694 3.382712,10.866204 3.90604,13.612262 3.913453,20.535096 0.0074,6.93401 0.674861,15.75707 1.832276,24.22164 2.205448,16.1292 6.482598,27.81805 11.825557,32.31758 l 1.236166,1.04103 -1.063626,2.07798 c -1.032932,2.01801 -2.540986,3.65097 -3.371712,3.65097 -0.224406,0 -0.907621,-0.57065 -1.518251,-1.26811 z"
     id="path4294"
     inkscape:connector-curvature="0" /><path
     style="opacity:1;fill:#529fc3;fill-opacity:1;stroke:#529fc3;stroke-width:2.49500775;stroke-linecap:round;stroke-miterlimit:4;stroke-dasharray:none;stroke-dashoffset:0;stroke-opacity:1"
     d="m 129.44471,167.5964 c -1.30206,-0.45663 -3.04254,-1.9616 -3.70302,-3.20197 -0.60315,-1.13271 -0.55958,-1.26034 0.61908,-1.81332 2.24391,-1.05277 5.15416,-4.36612 6.98548,-7.95303 4.91207,-9.62103 7.51761,-24.97586 8.33231,-49.10358 0.29465,-8.725989 0.43071,-9.636048 2.46841,-16.510782 3.7222,-12.557859 4.58501,-15.698686 5.40674,-19.681683 1.26368,-6.12515 1.65127,-10.200183 1.42476,-14.979406 -0.21296,-4.493246 -0.70876,-7.334011 -1.89947,-10.883406 -2.50676,-7.472388 -9.09572,-16.31158 -14.89147,-19.977138 -5.51451,-3.487683 -10.9974,-4.155459 -18.41807,-2.243184 -1.29691,0.334209 -2.41281,0.553749 -2.47977,0.487865 -0.23151,-0.22777 11.25974,-4.128792 14.28957,-4.850989 3.80377,-0.906677 8.29713,-0.981205 10.66258,-0.17685 2.56249,0.871359 4.94094,2.44597 7.52497,4.981773 5.9778,5.866244 9.7603,12.798578 10.79571,19.785741 0.46971,3.169644 0.22607,10.835056 -0.46615,14.666459 -0.80427,4.451542 -2.93149,12.260045 -5.77125,21.184858 -5.13955,16.152525 -5.5618,18.345991 -5.91625,30.732962 -0.39312,13.73785 -1.1123,22.6678 -2.59524,32.22485 -2.09608,13.50854 -5.46206,23.44265 -9.07369,26.77945 -1.15913,1.07092 -1.56849,1.13693 -3.29523,0.53138 z"
     id="path4296"
     inkscape:connector-curvature="0" /><path
     inkscape:connector-curvature="0"
     style="fill:#247aa2;fill-opacity:1"
     d="m 127.30724,50.759067 c -4.43079,-7.568868 -9.08583,-11.09402 -14.64917,-11.09402 -3.6019,0 -7.09716,1.464737 -10.47122,2.878252 l -0.11173,0.04661 c -3.599635,1.498691 -6.999561,2.915082 -10.668196,2.915082 -3.676354,0 -7.279637,-1.533223 -10.786675,-3.024435 -3.440322,-1.450922 -6.997296,-2.950192 -10.557914,-2.950192 -5.591019,0 -10.136656,3.59652 -14.303254,11.314443 -6.554254,12.102933 -2.832956,25.063401 0.168858,35.515693 1.336814,4.650324 2.599203,9.042233 2.599203,12.358462 0,17.027215 2.83204,45.842515 13.447142,45.842515 7.264656,0 9.499798,-10.70206 11.4771,-20.17076 2.09942,-9.96771 3.917393,-17.0232 8.21338,-17.0232 3.706305,0 5.124382,4.56803 7.090336,15.51875 1.70131,9.56769 3.81844,21.47378 12.74677,21.47378 12.45804,0 13.42628,-34.9511 13.42628,-45.662956 0,-3.14415 1.22061,-7.499216 2.51339,-12.11041 l 0.0514,-0.184166 c 2.97415,-10.667544 6.67547,-23.942828 -0.18566,-35.643458 z m -6.23381,32.765783 -0.0473,0.170352 c -1.4948,5.332336 -2.90651,10.368847 -2.90651,15.001312 0,10.166846 -0.84341,20.021726 -2.31458,27.038076 -1.71857,8.19679 -3.68908,9.99191 -4.30323,9.99191 -2.73448,0 -4.04678,-3.16833 -6.1117,-14.78036 -1.6831,-9.37431 -3.98771,-22.212781 -13.725349,-22.212781 -9.856596,0 -12.70908,13.541191 -14.800769,23.473781 -1.141176,5.46357 -2.865198,13.72019 -4.889264,13.72019 -0.314113,0 -2.291871,-1.73118 -4.102596,-9.95849 -1.611444,-7.32082 -2.535178,-17.2534 -2.535178,-27.251009 0,-4.840258 -1.46256,-9.927989 -3.020884,-15.349528 -2.710404,-9.438194 -5.512964,-19.198127 -0.94009,-27.642374 3.596468,-6.664124 6.409449,-7.562537 8.686352,-7.562537 2.458474,0 5.349087,1.218417 8.41401,2.510493 3.816625,1.623578 8.142092,3.46414 12.930121,3.46414 4.757619,0 9.026817,-1.777256 12.793067,-3.345584 l 0.11755,-0.0489 c 3.00048,-1.257535 5.83526,-2.444869 8.34093,-2.444869 2.33819,0 5.25786,0.903586 9.18342,7.609143 4.69859,8.011458 1.91967,17.978569 -0.76805,27.617059 z"
     id="path3-5-3" /></svg>