<?xml version="1.0" encoding="UTF-8" standalone="no"?>
<!-- Created with Inkscape (http://www.inkscape.org/) -->

<svg
   xmlns:osb="http://www.openswatchbook.org/uri/2009/osb"
   xmlns:dc="http://purl.org/dc/elements/1.1/"
   xmlns:cc="http://creativecommons.org/ns#"
   xmlns:rdf="http://www.w3.org/1999/02/22-rdf-syntax-ns#"
   xmlns:svg="http://www.w3.org/2000/svg"
   xmlns="http://www.w3.org/2000/svg"
   xmlns:sodipodi="http://sodipodi.sourceforge.net/DTD/sodipodi-0.dtd"
   xmlns:inkscape="http://www.inkscape.org/namespaces/inkscape"
   width="210mm"
   height="297mm"
   viewBox="0 0 744.09448819 1052.3622047"
   id="svg4172"
   version="1.1"
   inkscape:version="0.91 r13725"
   sodipodi:docname="site-logo3.svg">
  <defs
     id="defs4174">
    <linearGradient
       id="linearGradient7037"
       osb:paint="solid">
      <stop
         style="stop-color:#000000;stop-opacity:1;"
         offset="0"
         id="stop7039" />
    </linearGradient>
    <linearGradient
       id="linearGradient7029"
       osb:paint="solid">
      <stop
         style="stop-color:#418c90;stop-opacity:1;"
         offset="0"
         id="stop7031" />
    </linearGradient>
    <linearGradient
       id="linearGradient6956"
       osb:paint="solid">
      <stop
         style="stop-color:#000000;stop-opacity:1;"
         offset="0"
         id="stop6958" />
    </linearGradient>
  </defs>
  <sodipodi:namedview
     id="base"
     pagecolor="#ffffff"
     bordercolor="#666666"
     borderopacity="1.0"
     inkscape:pageopacity="0.0"
     inkscape:pageshadow="2"
     inkscape:zoom="0.7"
     inkscape:cx="-255.94722"
     inkscape:cy="807.6982"
     inkscape:document-units="px"
     inkscape:current-layer="layer1"
     showgrid="false"
     inkscape:window-width="1855"
     inkscape:window-height="1056"
     inkscape:window-x="65"
     inkscape:window-y="24"
     inkscape:window-maximized="1" />
  <metadata
     id="metadata4177">
    <rdf:RDF>
      <cc:Work
         rdf:about="">
        <dc:format>image/svg+xml</dc:format>
        <dc:type
           rdf:resource="http://purl.org/dc/dcmitype/StillImage" />
        <dc:title></dc:title>
      </cc:Work>
    </rdf:RDF>
  </metadata>
  <g
     inkscape:label="Layer 1"
     inkscape:groupmode="layer"
     id="layer1">
    <path
       inkscape:connector-curvature="0"
       style="fill:#52babf;fill-opacity:1"
       d="m 230.08368,242.22819 c -23.9819,-36.42749 -49.1775,-53.39334 -79.2892,-53.39334 -19.4956,0 -38.4138,7.04953 -56.675998,13.8525 l -0.6045,0.22416 c -19.4832,7.2129 -37.8854,14.02967 -57.7421,14.02967 -19.8984,0 -39.4014004,-7.37907 -58.3834,-14.55597 -18.6208,-6.98303 -37.8731,-14.1987 -57.1451,-14.1987 -30.261602,0 -54.865102,17.3093 -77.417002,54.45424 -35.4752,58.24896 -15.3335,120.62528 0.914,170.93014 7.2355,22.381 14.0682,43.5185 14.0682,59.4789 0,81.9485 15.3286,220.631 72.783302,220.631 39.3203,0 51.4181,-51.507 62.1203996,-97.078 11.3632,-47.9725 21.2030004,-81.9292 44.4552004,-81.9292 20.0605,0 27.736,21.9849 38.3767,74.6887 9.2085,46.0473 20.6676,103.349 68.992498,103.349 67.4297,0 72.6703,-168.2128 72.6703,-219.7668 0,-15.1322 6.6065,-36.0923 13.6038,-58.2851 l 0.2775,-0.8863 c 16.0977,-51.34083 36.1313,-115.23228 -1.0049,-171.54513 z m -33.7408,157.6953 -0.2558,0.82 c -8.0906,25.6635 -15.7316,49.9031 -15.7316,72.1984 0,48.9309 -4.5649,96.3606 -12.5278,130.1289 -9.3017,39.4494 -19.9673,48.089 -23.2914,48.089 -14.8004,0 -21.9033,-15.2486 -33.0798,-71.1349 -9.1099,-45.1167 -21.583698,-106.9057 -74.289098,-106.9057 -53.3492,0 -68.7884,65.171 -80.1098,112.9747 -6.1767,26.2949 -15.508,66.0325 -26.4633,66.0325 -1.7002,0 -12.4049,-8.3319 -22.2055,-47.9282 -8.722002,-35.2337 -13.721802,-83.0372 -13.721802,-131.1539 0,-23.2951 -7.9162,-47.7813 -16.3507,-73.8741 -14.67,-45.4243 -29.839,-92.39687 -5.0881,-133.03743 19.466,-32.07314 34.691502,-36.39702 47.015202,-36.39702 13.3067,0 28.9522,5.86396 45.5413,12.08246 20.6576,7.81403 44.0694996,16.6723 69.9849,16.6723 25.7508,0 48.858,-8.55358 69.242998,-16.10164 l 0.6362,-0.23539 c 16.2402,-6.05233 31.5835,-11.76669 45.1457,-11.76669 12.6555,0 28.4583,4.34879 49.7057,36.62133 25.4313,38.55751 10.3903,86.52736 -4.1571,132.91548 z"
       id="path3-5-3-9-1-0" />
    <path
       inkscape:connector-curvature="0"
       style="fill:#418c90;fill-opacity:1"
       d="m -462.80364,-362.2961 c -17.05301,-27.82877 -34.96911,-40.78981 -56.38093,-40.78981 -13.86293,0 -27.31529,5.38547 -40.30119,10.58257 l -0.42982,0.17142 c -13.85412,5.51031 -26.93959,10.71802 -41.05926,10.71802 -14.14935,0 -28.01747,-5.63727 -41.51522,-11.12006 -13.24091,-5.33469 -26.93079,-10.84711 -40.63475,-10.84711 -21.51841,0 -39.01347,13.22348 -55.04962,41.60029 -25.22576,44.49933 -10.90342,92.15163 0.64986,130.58201 5.14508,17.09802 10.00365,33.24597 10.00365,45.43889 0,62.60463 10.89988,168.551072 51.75475,168.551072 27.95985,0 36.56236,-39.34876 44.17248,-74.16275 8.08019,-36.648612 15.07713,-62.589822 31.61128,-62.589822 14.26461,0 19.72246,16.79543 27.28889,57.058372 6.54796,35.17791 14.69625,78.95355 49.05912,78.95355 47.94794,0 51.6744,-128.506152 51.6744,-167.890862 0,-11.5602 4.69778,-27.57267 9.67338,-44.52683 l 0.19723,-0.67714 c 11.44678,-39.22181 25.69222,-88.0316 -0.71453,-131.05181 z m -23.99236,120.47132 -0.1818,0.62637 c -5.753,19.60559 -11.18636,38.1235 -11.18636,55.15595 0,37.3808 -3.24602,73.61465 -8.90823,99.411912 -6.61435,30.13745 -14.19832,36.7376 -16.56212,36.7376 -10.52424,0 -15.57502,-11.64912 -23.52234,-54.343452 -6.47785,-34.46691 -15.34777,-81.67061 -52.82551,-81.67061 -37.93555,0 -48.91404,49.78743 -56.96444,86.306982 -4.39209,20.08811 -11.0274,50.44554 -18.81757,50.44554 -1.20891,0 -8.82084,-6.36516 -15.78985,-36.61474 -6.20209,-26.916722 -9.75729,-63.436292 -9.75729,-100.194902 0,-17.79635 -5.62905,-36.50263 -11.62664,-56.43624 -10.43165,-34.70181 -21.21802,-70.58651 -3.61816,-101.63384 13.84191,-24.50225 24.66837,-27.80548 33.43161,-27.80548 9.46201,0 20.58731,4.47976 32.38347,9.2304 14.68918,5.96951 31.33684,12.73676 49.76479,12.73676 18.31091,0 34.74192,-6.5345 49.23731,-12.30082 l 0.45238,-0.17984 c 11.54811,-4.62369 22.45848,-8.98918 32.10221,-8.98918 8.99905,0 20.23616,3.32225 35.34475,27.97688 18.08365,29.45602 7.38833,66.10253 -2.95607,101.54074 z"
       id="path3-5-3-9" />
    <path
       inkscape:connector-curvature="0"
       style="fill:#2f6669;fill-opacity:1"
       d="m -426.96614,332.6258 c -10.85352,-19.85542 -22.25636,-29.10295 -35.88413,-29.10295 -8.82311,0 -17.38497,3.84244 -25.64996,7.55052 l -0.27355,0.12227 c -8.81756,3.93151 -17.14588,7.64713 -26.13247,7.64713 -9.00548,0 -17.83193,-4.0221 -26.42268,-7.934 -8.4273,-3.80621 -17.14033,-7.73924 -25.86233,-7.73924 -13.69554,0 -24.83039,9.43475 -35.03675,29.68119 -16.05512,31.74963 -6.93955,65.74883 0.41363,93.16833 3.27461,12.1992 6.36689,23.72049 6.36689,32.41997 0,44.66751 6.9373,120.25872 32.93971,120.25872 17.79526,0 23.27037,-28.07471 28.11393,-52.914 5.14267,-26.14827 9.59592,-44.65694 20.1192,-44.65694 9.07887,0 12.55251,11.98332 17.36827,40.71033 4.16747,25.09892 9.35351,56.3322 31.22405,56.3322 30.51685,0 32.88857,-91.68725 32.88857,-119.78769 0,-8.24805 2.98995,-19.6727 6.15672,-31.76924 l 0.12569,-0.48313 c 7.28539,-27.98417 16.35201,-62.80923 -0.45476,-93.5035 z m -15.27013,85.9545 -0.11559,0.44688 c -3.66159,13.98832 -7.11967,27.2006 -7.11967,39.35295 0,26.67071 -2.06599,52.52301 -5.66973,70.929 -4.20975,21.50264 -9.03665,26.21175 -10.54107,26.21175 -6.69826,0 -9.91283,-8.31148 -14.97103,-38.7733 -4.12286,-24.59164 -9.76815,-58.27079 -33.62115,-58.27079 -24.1444,0 -31.13172,35.5226 -36.25548,61.57879 -2.79539,14.33255 -7.01847,35.99217 -11.97658,35.99217 -0.76944,0 -5.6141,-4.54146 -10.04956,-26.12411 -3.94734,-19.20471 -6.21012,-45.26085 -6.21012,-71.48759 0,-12.69745 -3.58264,-26.0441 -7.39986,-40.26642 -6.63931,-24.75923 -13.50434,-50.36246 -2.30281,-72.51426 8.80979,-17.482 15.70041,-19.83881 21.2778,-19.83881 6.0222,0 13.10298,3.19628 20.61072,6.58578 9.34905,4.25913 19.9446,9.08748 31.6732,9.08748 11.65407,0 22.11176,-4.66227 31.33745,-8.77647 l 0.28797,-0.12827 c 7.34986,-3.2989 14.29384,-6.41363 20.43165,-6.41363 5.72756,0 12.87949,2.37038 22.49541,19.96107 11.50953,21.01646 4.70236,47.16319 -1.88138,72.44785 z"
       id="path3-5-3" />
    <path
       style="opacity:1;fill:#2f6669;fill-opacity:1;stroke:none;stroke-width:2.80599999;stroke-miterlimit:4;stroke-dasharray:none"
       d="m -565.59518,548.93363 c -5.32942,-14.0403 -9.21034,-39.1638 -11.91654,-77.14285 -1.51163,-21.21429 -5.35775,-48.12734 -8.54692,-59.80678 -10.57115,-38.7138 -6.41373,-67.72701 11.59479,-80.91596 7.32426,-5.36408 7.56402,-5.34527 25.67522,2.01397 27.01621,10.97767 35.77332,11.6544 55.55218,4.29299 9.40148,-3.4991 21.70403,-6.94478 27.339,-7.65707 8.76982,-1.10855 11.33086,-0.005 17.782,7.66166 15.03873,17.87251 15.99424,35.427 4.42923,81.37309 -3.13928,12.47191 -6.87003,41.01428 -8.29055,63.42751 -2.75448,43.4607 -6.68322,64.58597 -12.98373,69.81493 -5.33401,4.42683 -8.23354,-3.00799 -15.55954,-39.89688 -8.26994,-41.64195 -16.38189,-54.59318 -34.19425,-54.59318 -17.19057,0 -27.07982,16.40245 -36.82601,61.08016 -3.38618,15.52266 -7.32374,30.30837 -8.75014,32.85714 -2.21642,3.96042 -2.98762,3.5957 -5.30474,-2.50873 z"
       id="path5455"
       inkscape:connector-curvature="0" />
    <path
       style="opacity:1;fill:#2f6669;fill-opacity:1;stroke:none;stroke-width:2.80599999;stroke-miterlimit:4;stroke-dasharray:none"
       d=""
       id="path5463"
       inkscape:connector-curvature="0" />
    <path
       style="opacity:1;fill:#2f6669;fill-opacity:1;stroke:none;stroke-width:2.80599999;stroke-miterlimit:4;stroke-dasharray:none"
       d=""
       id="path5465"
       inkscape:connector-curvature="0" />
    <path
       style="opacity:1;fill:#2f6669;fill-opacity:1;stroke:none;stroke-width:2.80599999;stroke-miterlimit:4;stroke-dasharray:none"
       d=""
       id="path5467"
       inkscape:connector-curvature="0" />
    <path
       style="opacity:1;fill:#2f6669;fill-opacity:1;stroke:none;stroke-width:2.80599999;stroke-miterlimit:4;stroke-dasharray:none"
       d=""
       id="path5469"
       inkscape:connector-curvature="0" />
    <path
       style="opacity:1;fill:#2f6669;fill-opacity:1;stroke:none;stroke-width:2.80599999;stroke-miterlimit:4;stroke-dasharray:none"
       d=""
       id="path5471"
       inkscape:connector-curvature="0" />
    <path
       style="opacity:1;fill:#2f6669;fill-opacity:1;stroke:none;stroke-width:2.80599999;stroke-miterlimit:4;stroke-dasharray:none"
       d="m -441.4303,412.03763 c 0.13322,-1.17857 1.22627,-6.96428 2.42901,-12.85714 2.9336,-14.37327 4.0213,-26.77524 3.03686,-34.62633 -0.89307,-7.12233 -0.88238,-8.28747 0.0493,-5.37367 1.42013,4.44149 1.58836,18.38752 0.32867,27.24645 -1.06005,7.45496 -6.47309,31.17772 -5.84382,25.61069 z"
       id="path5473"
       inkscape:connector-curvature="0" />
    <path
       style="opacity:1;fill:#2f6669;fill-opacity:1;stroke:none;stroke-width:2.80599999;stroke-miterlimit:4;stroke-dasharray:none"
       d="m -435.5048,373.28763 c 0.49006,-5.06099 0.80493,-5.32005 0.86817,-0.71428 0.031,2.25892 -0.22556,4.10714 -0.57015,4.10714 -0.3446,0 -0.47871,-1.52679 -0.29802,-3.39286 z"
       id="path5475"
       inkscape:connector-curvature="0" />
    <path
       style="opacity:1;fill:#2f6669;fill-opacity:1;stroke:none;stroke-width:2.80599999;stroke-miterlimit:4;stroke-dasharray:none"
       d="m -435.23813,374.83525 c 0.0343,-0.8321 0.20352,-1.00136 0.43154,-0.43155 0.20634,0.51563 0.18096,1.1317 -0.0564,1.36905 -0.23735,0.23735 -0.40617,-0.18452 -0.37515,-0.9375 z"
       id="path5477"
       inkscape:connector-curvature="0" />
    <path
       style="opacity:1;fill:#2f6669;fill-opacity:1;stroke:none;stroke-width:2.80599999;stroke-miterlimit:4;stroke-dasharray:none"
       d="m -95.368298,93.473305 c -11.855852,-4.26815 -20.579812,-26.58601 -25.277872,-64.6665 -1.76385,-14.29704 -2.62323,-27.1565495 -3.05501,-45.71429 -0.41984,-18.04501 -0.49922,-18.53075 -7.14901,-43.75 -6.46944,-24.53525 -8.15512,-34.24759 -8.4611,-48.749995 -0.35912,-17.02145 1.97306,-28.12099 8.81734,-41.96428 8.38957,-16.96882 18.06143,-26.65432 28.91421,-28.95499 3.080782,-0.65309 8.552912,-0.6418 12.037062,0.0248 4.99012,0.95476 8.45466,2.21726 20.12836,7.33488 13.84876,6.07114 18.85576,7.53065 25.90972,7.55249 7.0676,0.0219 12.40397,-1.49774 25.85693,-7.36324 15.7910397,-6.8849 19.8012697,-7.98136 27.78704,-7.59739 7.54939,0.36298 13.28031,2.99909 19.74857,9.08396 10.2508,9.64322 19.33985,26.68176 22.25347,41.71691 3.41536,17.6242 1.84601,35.069275 -5.8906,65.480605 -7.73717,30.41352 -7.44713,28.72919 -7.81809,45.40051 -0.69226,31.11147 -2.54427,51.47945 -6.43681,70.79052 -5.97719,29.65313 -15.61732,43.35848 -29.1230803,41.4042 -10.29713,-1.48998 -17.7229897,-10.83608 -22.6157997,-28.46395 -1.59064,-5.73079 -2.96768,-12.49896 -5.57892,-27.42058 -3.53457,-20.19792 -5.39665,-27.8343795 -8.20075,-33.6316195 -1.5216,-3.14579004 -2.98602,-4.90990004 -5.1144,-6.16107 -2.20776,-1.29783 -5.87652,-1.37934 -8.14747,-0.18102 -2.11214,1.11452 -4.89022,4.40269 -6.54507,7.74684 -3.21458,6.4960795 -5.57584,15.2646595 -10.00847,37.1666795 -1.59017,7.85714 -3.54778,16.85714 -4.35024,20 -4.7279,18.5169 -10.7272,28.40733 -18.73064,30.87934 -2.96222,0.91494 -6.47068,0.92951 -8.94937,0.0372 z m 6.3121,-22.83873 c 2.12026,-2.22885 4.57308,-9.13062 6.93235,-19.50634 0.49131,-2.16072 2.11017,-9.94299 3.59745,-17.29394 2.85639,-14.11778 4.06788,-19.3048 6.13741,-26.2774895 5.61643,-18.9229505 13.61279,-29.7323205 24.0461,-32.5051905 2.53065,-0.67257 8.53414,-0.67454 11.05523,-0.004 6.78059,1.80446 12.40035,6.9841 16.69358,15.3862005 4.55458,8.91355996 7.15931,18.58194 11.0113797,40.8725995 1.10321,6.38393 2.55227,14.26587 3.22014,17.51544 3.31577,16.13311 6.62003998,22.48455 11.69736,22.48455 1.55088,0 2.92797,-1.45057 4.6782403,-4.92787 6.0513,-12.02221 10.36825,-38.85134 11.61976,-72.2149895 0.37124,-9.8966205 0.70083,-27.4226705 0.49701,-26.4285705 -0.44204,2.15603 -2.07896,19.97354 -2.97349,32.36583046 C 16.116872,42.207905 12.849822,60.354895 7.1784917,66.632375 c -1.72092,1.90486 -3.09423,2.44245 -4.2705,1.67174 -3.20860002,-2.10236 -5.67021,-10.37102 -11.41715,-38.35076 -6.4011997,-31.1651395 -10.9718197,-43.56965 -18.7614097,-50.91796 -4.11178,-3.87885 -8.05427,-5.48587 -14.31175,-5.83368 -7.41577,-0.4122 -12.39237,1.51548 -17.65343,6.83801 -7.9724,8.06555 -13.72641,22.5081505 -20.1928,50.68403 -4.19032,18.25839 -6.87508,28.82106 -8.53767,33.58982 -0.95777,2.74713 -2.41074,5.20711 -3.07555,5.20711 -1.74539,0 -5.28901,-10.40553 -7.84484,-23.03571 -2.520232,-12.45424 -4.767022,-30.35161 -6.411382,-51.0714295 -1.14585,-14.4383305 -2.04751,-24.1521605 -2.22535,-23.9743205 -0.21878,0.21879 0.56747,26.2883805 0.96542,32.0100405 2.0426,29.3680295 6.44001,52.9653195 11.883292,63.7677595 1.31495,2.6096 3.07424,4.80366 3.85175,4.80366 0.24625,0 1.04126,-0.62393 1.76668,-1.38651 z m 111.67509,-105.66026 c -0.0906,-0.34749 -0.17059,-0.14965 -0.17787,0.43963 -0.007,0.58929 0.0668,0.87359 0.16464,0.6318 0.0978,-0.2418 0.10378,-0.72394 0.0132,-1.07143 l -2e-5,0 z m 0.34617,-3.04251 c -0.0991,-0.24554 -0.18014,-0.0446 -0.18014,0.44643 0,0.49107 0.0811,0.69196 0.18014,0.44643 0.0991,-0.24554 0.0991,-0.64733 0,-0.89286 z m 0.36811,-2.31463 c -0.0906,-0.34749 -0.17059,-0.14966 -0.17787,0.43963 -0.007,0.58928 0.0668,0.87359 0.16464,0.6318 0.0978,-0.2418 0.10378,-0.72394 0.0133,-1.07143 l -2e-5,0 z m 6.12892,-25.81037 c 6.62814,-26.10394 7.67313,-32.15968 7.70367,-44.642855 0.0221,-9.02772 -0.28459,-11.64563 -2.11278,-18.03571 -1.17282,-4.09937 -4.40971,-10.73228 -7.58148,-15.53572 -7.21504,-10.92666 -13.30286,-14.79907 -21.4535303,-13.64642 -4.0478,0.57243 -8.64176,2.14233 -17.1089197,5.84661 -17.60411,7.70161 -24.97791,9.63565 -34.72184,9.10703 -8.06116,-0.43732 -14.35065,-2.33337 -28.56476,-8.61121 -9.79141,-4.3245 -13.12103,-5.55946 -17.33693,-6.43027 -3.17203,-0.6552 -4.52618,-0.68504 -7.05726,-0.15549 -6.601532,1.38118 -12.292502,7.49279 -18.428772,19.79089 -2.08945,4.18761 -3.69019,8.80228 -4.73436,13.6484 -1.09155,5.06603 -1.35778,16.97766 -0.5329,23.84332 1.1139,9.271275 2.68818,16.461585 7.93672,36.249995 1.48483,5.59821 3.23311,12.50893 3.88507,15.35714 0.65195,2.84822 1.19578,5.00112 1.20851,4.78423 0.0405,-0.69046 -1.39116,-9.75493 -2.50432,-15.85566 -0.59138,-3.24107 -2.02834,-9.75 -3.19325,-14.46428 -3.45472,-13.98102 -4.56026,-21.27138 -4.87655,-32.157905 -0.46462,-15.99233 2.25816,-27.81815 8.53385,-37.06498 3.13749,-4.62289 9.15515,-9.99076 13.356392,-11.91415 3.42375,-1.56745 5.34724,-1.10614 20.31417,4.87194 15.91564,6.357 24.37712,8.77594 32.13812,9.18752 6.89612,0.36571 13.19066,-0.89234 24.16135,-4.82897 3.21387,-1.15323 8.33446,-2.83829 11.3791,-3.74457 14.0724797,-4.18886 21.17297,-5.06553 25.50547,-3.14905 3.01516,1.33374 8.4519,7.13911 12.49538,13.3426 8.53892,13.10038 9.64096,27.81708 4.1428,55.323165 -0.77051,3.85465 -2.13894,10.04215 -3.04095,13.75 -2.11498,8.69384 -2.82854,12.14073 -4.09419,19.77726 -1.47969,8.92791 -1.66855,11.6573 -0.39541,5.71428 0.56807,-2.65178 2.80799,-11.8125 4.9776,-20.35714 z"
       id="path5479"
       inkscape:connector-curvature="0" />
    <path
       style="opacity:1;fill:#2f6669;fill-opacity:1;stroke:none;stroke-width:2.80599999;stroke-miterlimit:4;stroke-dasharray:none"
       d="m -468.65708,554.62448 c -3.05487,-1.50493 -5.46349,-6.89635 -8.03595,-17.98763 -1.07659,-4.64176 -5.93558,-31.28039 -5.93558,-32.54086 0,-1.21373 0.51258,1.02158 2.84101,12.38939 5.38037,26.26797 8.25391,35.4413 11.45111,36.55585 1.46676,0.51132 3.712,-0.73685 5.19408,-2.88748 5.18659,-7.52625 8.26223,-25.38021 11.0602,-64.20409 0.5167,-7.16964 1.24048,-15.84821 1.6084,-19.28571 l 0.66894,-6.25 -0.15059,10.71428 c -0.48341,34.39588 -5.24136,66.47196 -11.78983,79.48206 -2.2359,4.44215 -3.98317,5.45692 -6.91179,4.01419 z"
       id="path5481"
       inkscape:connector-curvature="0" />
    <path
       style="opacity:1;fill:#2f6669;fill-opacity:1;stroke:none;stroke-width:2.80599999;stroke-miterlimit:4;stroke-dasharray:none"
       d="m -494.25658,470.14609 c -0.7548,-1.22768 -2.66616,-3.52946 -4.24747,-5.11507 -4.50048,-4.51273 -9.40715,-6.58136 -15.61058,-6.58136 -3.76644,0 -6.18361,0.47496 -9.09686,1.78747 -3.02797,1.36421 -4.53881,2.45049 -7.54212,5.42274 -1.4241,1.40938 -2.58928,2.38106 -2.58928,2.15929 0,-0.22177 1.34149,-1.75684 2.9811,-3.41128 4.62292,-4.66475 9.38217,-6.67854 15.75465,-6.6663 8.72378,0.0168 14.87911,3.35542 19.8287,10.75514 1.90652,2.85028 2.44373,3.88151 2.02203,3.88151 -0.0703,0 -0.74537,-1.00446 -1.50017,-2.23214 z"
       id="path5483"
       inkscape:connector-curvature="0" />
    <path
       style="opacity:1;fill:#2f6669;fill-opacity:1;stroke:none;stroke-width:2.80599999;stroke-miterlimit:4;stroke-dasharray:none"
       d=""
       id="path5485"
       inkscape:connector-curvature="0" />
    <path
       style="opacity:1;fill:#2f6669;fill-opacity:1;stroke:none;stroke-width:2.80599999;stroke-miterlimit:4;stroke-dasharray:none"
       d="m -563.52967,554.96752 c -1.24029,-1.30988 -3.78738,-6.62456 -5.14378,-10.73286 -4.00843,-12.14082 -7.13967,-31.29505 -8.76917,-53.64214 -0.60348,-8.27624 -1.36689,-28.581 -1.08516,-28.86273 0.10169,-0.10169 0.18489,0.26129 0.18489,0.80663 0,1.60309 1.73393,22.95834 2.50998,30.91324 2.83517,29.06165 6.88564,49.63083 11.60862,58.95119 1.31633,2.59766 2.37777,2.34446 4.04044,-0.96382 1.60043,-3.18441 4.66797,-14.59984 8.62442,-32.09451 2.5039,-11.0718 5.07941,-21.19711 5.25657,-20.66561 0.0666,0.1999 -0.43121,2.7618 -1.10633,5.6931 -0.67511,2.93131 -2.21922,10.31179 -3.43136,16.40108 -3.63258,18.24874 -5.69652,26.16365 -8.12978,31.17658 -1.13415,2.33656 -2.52196,4.00199 -3.33484,4.00199 -0.16199,0 -0.71301,-0.44196 -1.2245,-0.98214 z"
       id="path5487"
       inkscape:connector-curvature="0" />
    <path
       style="opacity:1;fill:#2f6669;fill-opacity:1;stroke:none;stroke-width:2.80599999;stroke-miterlimit:4;stroke-dasharray:none"
       d="m -586.47714,416.3068 c -6.35854,-24.33488 -7.58004,-31.39203 -7.58004,-43.79313 0,-10.68621 1.44971,-17.65123 5.36819,-25.79104 6.47906,-13.4589 12.81155,-19.97257 20.07656,-20.65098 4.70478,-0.43934 9.48258,0.95418 21.34097,6.22444 4.22321,1.87694 9.92857,4.2664 12.67857,5.30991 2.75,1.04352 4.75223,1.9013 4.44941,1.9062 -1.03765,0.0168 -9.80978,-3.11099 -19.96301,-7.11792 -16.76391,-6.6158 -17.40004,-6.65542 -24.30783,-1.51394 -8.72501,6.49403 -14.09221,16.11388 -16.47769,29.53361 -0.72514,4.07936 -0.82385,5.76984 -0.81331,13.92857 0.0158,12.2364 1.10573,20.18259 4.77621,34.82143 1.98002,7.89684 4.02657,17.99175 3.86972,19.08801 -0.0577,0.40338 -1.5957,-4.97194 -3.41775,-11.94516 z"
       id="path5489"
       inkscape:connector-curvature="0" />
    <path
       style="opacity:1;fill:#2f6669;fill-opacity:1;stroke:none;stroke-width:2.80599999;stroke-miterlimit:4;stroke-dasharray:none;stroke-opacity:1"
       d="m -146.79687,836.35368 c -9.4908,-3.53611 -16.82977,-18.03616 -21.89596,-43.26116 -3.6745,-18.29564 -6.41236,-46.72624 -6.4451,-66.92736 -0.024,-14.78257 -0.77612,-19.54928 -6.59946,-41.82264 -7.15082,-27.35077 -8.64471,-35.71591 -8.99602,-50.37415 -0.4186,-17.4655 1.97061,-28.9482 8.91309,-42.83694 7.53655,-15.0772 16.27415,-24.44769 25.90817,-27.78475 2.58027,-0.89376 3.82921,-1.10367 7.39069,-1.24216 7.4244,-0.28871 12.39601,1.04447 25.71428,6.8955 16.11795,7.081 20.45879,8.37821 28.03572,8.37821 7.15345,0 11.28958,-1.19123 26.07143,-7.50878 14.74355,-6.30117 18.87213,-7.49695 25.84302,-7.48501 4.24061,0.007 7.42946,0.61224 10.88927,2.0659 9.24924,3.88612 18.71979,14.53251 25.9553302,29.17789 5.56146002,11.25691 7.87494,20.89579 8.27193,34.46429 0.44754,15.2962 -1.28652998,26.29577 -8.95374,56.7956 -5.9318902,23.59677 -5.9178802,23.50828 -6.3036302,39.81154 -0.78168,33.03603 -3.05466,56.12673 -7.3652,74.82143 -6.14293,26.64171 -15.38666,38.71742 -28.19269,36.83001 -7.19346,-1.06021 -12.84609,-5.75585 -17.25052,-14.33001 -4.40497,-8.57524 -6.59661,-16.73662 -10.58621,-39.42171 -2.72716,-15.50677 -3.405,-18.96167 -4.80822,-24.50686 -2.91287,-11.51103 -5.94453,-16.71658 -10.50824,-18.04328 -5.20916,-1.51435 -9.45058,1.2166 -13.07014,8.41555 -3.15567,6.27632 -5.48736,14.91389 -9.97431,36.94916 -4.4792,21.99714 -6.70196,29.98277 -10.53735,37.85714 -3.20621,6.58262 -6.77702,10.57571 -11.26645,12.59881 -2.74174,1.23553 -7.60531,1.46531 -10.23969,0.48378 z m 6.12508,-22.693 c 3.09666,-3.28341 5.28666,-10.6209 9.83617,-32.95566 4.46242,-21.9072 6.79535,-31.00809 10.03349,-39.14115 5.35901,-13.45998 12.41133,-21.42856 20.90365,-23.6195 2.84524,-0.73404 8.47516,-0.7361 11.29997,-0.004 9.91893,2.57026 17.40824,12.79962 22.21699,30.34535 1.90252,6.94175 2.84914,11.51523 5.54334,26.78195 1.38554,7.85123 2.99981,16.44461 3.58726,19.0964 2.5627,11.56827 5.23626,17.59472 8.55735,19.28901 2.94661,1.50325 4.74397,0.59111 6.89273,-3.49799 6.33931,-12.06373 10.76271,-39.26072 12.00741,-73.82674 0.48868,-13.57082 0.65585,-25.77392 0.32536,-23.75 -0.56425,3.45543 -1.75955,16.56889 -2.79961,30.71429 -1.23858,16.84506 -1.85404,23.72949 -2.87356,32.14285 -2.64923,21.86226 -5.96452,32.77483 -10.865,35.76325 -0.59766,0.36446 -0.92594,0.66265 -0.72951,0.66265 0.7147,0 2.61818,-1.39438 3.52315,-2.58086 4.87726,-6.39441 8.06199,-23.58259 10.77083,-58.13075 0.51595,-6.58036 1.22659,-15.09821 1.5792,-18.92857 l 0.6411,-6.96429 0.0459,4.64286 c 0.12298,12.44238 -1.58914,34.75316 -3.74105,48.75 -2.98231,19.3981 -7.6774,33.58982 -11.56042,34.94345 -1.91153,0.66636 -4.29626,-0.61442 -5.87949,-3.15774 -2.72982,-4.38517 -4.58964,-11.3478 -8.23902,-30.84442 -1.30602,-6.9773 -0.93666,-7.29051 0.47827,-0.40558 2.9991,14.59326 5.58115,24.35309 7.62385,28.81709 1.17913,2.57684 2.10329,3.63773 3.50768,4.02666 0.78592,0.21765 0.75977,0.16264 -0.21837,-0.45933 -0.61118,-0.38862 -1.45198,-1.18512 -1.86844,-1.76999 -2.11853,-2.97521 -4.98803,-13.14072 -8.44015,-29.90015 -4.60955,-22.37858 -6.58187,-30.47743 -9.48122,-38.93229 -4.79245,-13.97535 -11.05814,-21.6221 -19.63468,-23.96247 -3.59412,-0.98077 -10.48773,-0.91634 -13.81262,0.12909 -11.26912,3.54329 -19.2522,17.02777 -26.5226,44.80019 -0.78693,3.00602 -2.7246,11.09048 -4.30592,17.96548 -5.37434,23.36553 -8.2814,32.67857 -10.20059,32.67857 -1.69167,0 -5.14211,-9.94409 -7.68322,-22.14285 -2.93041,-14.06759 -4.84039,-29.89991 -7.32447,-60.71429 -1.17952,-14.63168 -1.53622,-16.47686 -1.3463,-6.96428 0.69457,34.78816 4.11148,62.68725 9.81978,80.17857 2.03757,6.24348 5.32182,12.14285 6.76007,12.14285 0.23341,0 0.94113,-0.5479 1.57269,-1.21755 z M -28.09892,702.66841 c -0.11401,-0.2849 -0.19864,-0.20028 -0.21578,0.21578 -0.0155,0.37648 0.0689,0.58742 0.18758,0.46875 0.11868,-0.11868 0.13136,-0.42672 0.0282,-0.68453 l 2e-5,0 z m 1.53301,-7.33329 c 0.55826,-2.53797 2.54774,-10.62992 4.42106,-17.98211 4.00169,-15.70534 5.26358,-21.25687 6.46372,-28.43638 2.08203,-12.45513 2.12897,-23.03269 0.14073,-31.71697 -2.7556,-12.03596 -12.52977,-27.00435 -20.05301,-30.70963 -6.54295,-3.22247 -11.89712,-2.4237 -26.32091,3.92673 -17.58802,7.74357 -25.2469,9.80127 -34.82143,9.35546 -8.33886,-0.38827 -14.57981,-2.22847 -28.83091,-8.50103 -16.19009,-7.12599 -21.01496,-8.20079 -26.91106,-5.99478 -5.37171,2.00981 -10.88932,8.5458 -16.21231,19.20458 -1.89649,3.79754 -4.08297,10.34994 -4.83999,14.50439 -0.34607,1.89918 -0.66377,6.13673 -0.77651,10.35714 -0.29859,11.17781 0.92561,19.65468 5.33826,36.96429 5.83587,22.8925 7.73341,30.14704 7.75031,29.63048 0.0778,-2.37831 -3.02897,-18.45815 -5.55236,-28.73763 -1.96844,-8.01879 -3.79809,-18.02544 -4.40783,-24.10714 l -0.34016,-3.39286 0.1738,3.89171 c 0.20635,4.62075 1.45201,12.27788 3.20148,19.67972 3.36242,14.22614 4.47336,19.55758 3.98109,19.10543 -0.34718,-0.31888 -4.8569,-17.80239 -6.49416,-25.17686 -2.11928,-9.5456 -2.66572,-13.1924 -3.01751,-20.13813 -0.75365,-14.88029 0.98446,-23.92014 6.66861,-34.6833 4.01185,-7.59658 7.64714,-12.24489 11.69224,-14.95041 3.24443,-2.17001 5.30301,-2.6986 9.60379,-2.46597 4.09234,0.22136 6.84052,1.12731 18.64447,6.14625 10.72372,4.55962 10.43692,4.4302 9.88385,4.46025 -0.24469,0.0133 -4.42326,-1.51837 -9.28571,-3.40371 -19.88717,-7.71091 -20.65111,-7.82608 -26.41447,-3.98233 -9.25038,6.16933 -15.23316,16.06456 -17.97615,29.73164 -0.65717,3.27441 -0.80466,5.35583 -0.88574,12.5 l -0.0973,8.57143 0.28331,-8.03572 c 0.30302,-8.5944 1.00153,-13.66723 2.68017,-19.46428 1.10126,-3.8031 3.77764,-9.56685 5.87967,-12.66223 3.22925,-4.75528 9.19507,-10.09968 13.44693,-12.04624 3.34762,-1.5326 5.97631,-0.92061 19.75649,4.59956 27.2628,10.92112 35.62019,11.82983 53.27778,5.79292 20.25529,-6.92502 29.96749,-9.34725 36.07943,-8.99824 3.75017,0.21415 5.85983,1.30539 9.32169,4.82175 3.37621,3.42936 4.40751,4.7143 7.2921,9.08555 10.11236,15.32411 10.34868,32.14057 0.99865,71.06408 -1.77623,7.39434 -4.02394,19.01967 -4.61682,23.87856 -0.13182,1.08036 -0.32837,2.28572 -0.43678,2.67857 -0.1084,0.39286 -0.0861,0.60981 0.0497,0.48212 0.13573,-0.12769 0.70353,-2.30869 1.2618,-4.84666 z"
       id="path5491"
       inkscape:connector-curvature="0" />
    <path
       style="opacity:1;fill:#2f6669;fill-opacity:1;stroke:none;stroke-width:2.80599999;stroke-miterlimit:4;stroke-dasharray:none"
       d="m -437.44612,356.72855 c -0.37878,-2.0333 -2.54739,-7.4105 -4.18528,-10.37762 -3.54867,-6.42862 -10.52946,-14.36251 -14.11583,-16.04311 -4.60128,-2.15619 -13.68779,-0.8782 -29.14806,4.09957 -2.7199,0.87573 -5.00707,1.53043 -5.0826,1.45489 -0.22648,-0.22648 14.04764,-6.36319 17.74307,-7.62808 7.05844,-2.416 11.37858,-2.50393 15.96687,-0.32496 6.46434,3.0699 15.15897,14.836 18.96026,25.65816 1.24934,3.55685 1.31391,4.01241 0.60706,4.28365 -0.35172,0.13497 -0.57344,-0.19888 -0.74549,-1.1225 z"
       id="path5493"
       inkscape:connector-curvature="0" />
    <path
       style="opacity:1;fill:#2f6669;fill-opacity:1;stroke:none;stroke-width:2.80599999;stroke-miterlimit:4;stroke-dasharray:none"
       d=""
       id="path5495"
       inkscape:connector-curvature="0" />
    <path
       style="opacity:1;fill:#2f6669;fill-opacity:1;stroke:none;stroke-width:2.80599999;stroke-miterlimit:4;stroke-dasharray:none"
       d=""
       id="path5497"
       inkscape:connector-curvature="0" />
    <path
       style="opacity:1;fill:#2f6669;fill-opacity:1;stroke:none;stroke-width:2.80599999;stroke-miterlimit:4;stroke-dasharray:none"
       d=""
       id="path5499"
       inkscape:connector-curvature="0" />
    <path
       style="opacity:1;fill:#2f6669;fill-opacity:1;stroke:none;stroke-width:2.80599999;stroke-miterlimit:4;stroke-dasharray:none"
       d=""
       id="path5501"
       inkscape:connector-curvature="0" />
    <path
       style="opacity:1;fill:#2f6669;fill-opacity:1;stroke:none;stroke-width:2.80599999;stroke-miterlimit:4;stroke-dasharray:none"
       d=""
       id="path5503"
       inkscape:connector-curvature="0" />
    <path
       style="opacity:1;fill:#2f6669;fill-opacity:1;stroke:none;stroke-width:2.80599999;stroke-miterlimit:4;stroke-dasharray:none"
       d=""
       id="path5505"
       inkscape:connector-curvature="0" />
    <rect
       style="opacity:1;fill:#2f6669;fill-opacity:1;stroke:none;stroke-width:2.80599999;stroke-miterlimit:4;stroke-dasharray:none"
       id="rect5509"
       width="161.11934"
       height="154.3008"
       x="-409.013"
       y="201.15932" />
    <rect
       style="opacity:1;fill:#2f6669;fill-opacity:1;stroke:none;stroke-width:2.80599999;stroke-miterlimit:4;stroke-dasharray:none;stroke-opacity:1"
       id="rect6962"
       width="48.234783"
       height="67.680222"
       x="-822.02118"
       y="704.16229" />
    <rect
       style="opacity:1;fill:#2f6669;fill-opacity:1;stroke:none;stroke-width:2.80599999;stroke-miterlimit:4;stroke-dasharray:none;stroke-opacity:1"
       id="rect6962-3"
       width="48.234783"
       height="67.680222"
       x="-332.16064"
       y="723.86969" />
    <rect
       style="opacity:1;fill:#2f6669;fill-opacity:1;stroke:none;stroke-width:2.80599999;stroke-miterlimit:4;stroke-dasharray:none;stroke-opacity:1"
       id="rect6979"
       width="27.526657"
       height="26.769043"
       x="-596.12616"
       y="829.27655" />
    <rect
       style="opacity:1;fill:#2f6669;fill-opacity:1;stroke:none;stroke-width:2.80599999;stroke-miterlimit:4;stroke-dasharray:none;stroke-opacity:1"
       id="rect6979-6"
       width="27.526657"
       height="26.769043"
       x="-444.06857"
       y="807.35028" />
    <path
       style="opacity:1;fill:none;fill-opacity:1;stroke:none;stroke-width:2.80599999;stroke-miterlimit:4;stroke-dasharray:none;stroke-opacity:1"
       d="m -305.30323,-83.234062 c -6.87903,-8.175272 -13.55506,-30.901108 -17.82887,-60.691198 -2.70874,-18.88093 -3.97535,-35.1395 -4.69557,-60.27379 -0.90212,-31.48188 -1.03258,-32.18949 -14.48633,-78.57143 -6.405,-22.08132 -8.83383,-33.42245 -9.95472,-46.48232 -1.79759,-20.94443 2.06715,-36.22887 13.50489,-53.4097 6.20791,-9.325 11.90361,-14.98171 17.97538,-17.85233 4.2145,-1.99253 5.43637,-2.24014 10.82232,-2.19311 7.69264,0.0672 13.06417,1.55849 31.61451,8.77721 22.35567,8.69953 26.71004,10.06468 38.02835,11.92234 17.38837,2.85393 33.66247,-0.2042 62.78985,-11.79907 16.85375,-6.70906 22.06842,-8.11128 30.43419,-8.18371 7.16754,-0.0621 7.73614,0.0463 12.47766,2.37807 10.37003,5.09974 23.97076,22.49589 29.07113,37.18371 6.990133,20.12982 5.1199,40.88721 -7.71638,85.64251 -11.21723,39.11034 -11.54095,40.92979 -12.4066,69.73068 -1.71056,56.91185 -7.6736,95.99462 -17.70295,116.028238 -3.92363,7.837464 -5.96852,9.738443 -9.71882,9.034878 -3.75942,-0.705271 -6.58579,-3.506 -9.32355,-9.238978 -3.62234,-7.5853 -5.6161,-15.244748 -11.46323,-44.038418 -7.36562,-36.2714 -11.0489,-48.22702 -18.96049,-61.5442 -5.693,-9.58273 -15.08773,-17.09162 -24.52966,-19.60571 -5.02078,-1.33688 -15.01789,-1.25664 -19.7858,0.15879 -12.26244,3.64032 -22.47805,13.2277 -29.9775,28.13397 -5.45803,10.84867 -10.61463,27.73739 -16.74903,54.85593 -7.87389,34.808395 -11.17942,45.246073 -15.93676,50.322645 -2.35439,2.512378 -3.16357,2.470307 -5.48202,-0.285007 z"
       id="path7015"
       inkscape:connector-curvature="0" />
    <path
       style="opacity:1;fill:#418c90;fill-opacity:1;stroke:none;stroke-width:2.80599999;stroke-miterlimit:4;stroke-dasharray:none;stroke-opacity:1"
       d="m -305.30323,-83.234062 c -6.87903,-8.175272 -13.55506,-30.901108 -17.82887,-60.691198 -2.70874,-18.88093 -3.97535,-35.1395 -4.69557,-60.27379 -0.90212,-31.48188 -1.03258,-32.18949 -14.48633,-78.57143 -6.405,-22.08132 -8.83383,-33.42245 -9.95472,-46.48232 -1.79759,-20.94443 2.06715,-36.22887 13.50489,-53.4097 6.20791,-9.325 11.90361,-14.98171 17.97538,-17.85233 4.2145,-1.99253 5.43637,-2.24014 10.82232,-2.19311 7.69264,0.0672 13.06417,1.55849 31.61451,8.77721 22.35567,8.69953 26.71004,10.06468 38.02835,11.92234 17.38837,2.85393 33.66247,-0.2042 62.78985,-11.79907 16.85375,-6.70906 22.06842,-8.11128 30.43419,-8.18371 7.16754,-0.0621 7.73614,0.0463 12.47766,2.37807 10.37003,5.09974 23.97076,22.49589 29.07113,37.18371 6.990133,20.12982 5.1199,40.88721 -7.71638,85.64251 -11.21723,39.11034 -11.54095,40.92979 -12.4066,69.73068 -1.71056,56.91185 -7.6736,95.99462 -17.70295,116.028238 -3.92363,7.837464 -5.96852,9.738443 -9.71882,9.034878 -3.75942,-0.705271 -6.58579,-3.506 -9.32355,-9.238978 -3.62234,-7.5853 -5.6161,-15.244748 -11.46323,-44.038418 -7.36562,-36.2714 -11.0489,-48.22702 -18.96049,-61.5442 -5.693,-9.58273 -15.08773,-17.09162 -24.52966,-19.60571 -5.02078,-1.33688 -15.01789,-1.25664 -19.7858,0.15879 -12.26244,3.64032 -22.47805,13.2277 -29.9775,28.13397 -5.45803,10.84867 -10.61463,27.73739 -16.74903,54.85593 -7.87389,34.808395 -11.17942,45.246073 -15.93676,50.322645 -2.35439,2.512378 -3.16357,2.470307 -5.48202,-0.285007 z"
       id="path7035"
       inkscape:connector-curvature="0" />
    <rect
       style="opacity:1;fill:#418c90;fill-opacity:1;stroke:none;stroke-width:2.80599999;stroke-miterlimit:4;stroke-dasharray:none;stroke-opacity:1"
       id="rect7043"
       width="253.21429"
       height="218.57143"
       x="-353.71426"
       y="-405.85205" />
    <rect
       style="opacity:1;fill:#418c90;fill-opacity:1;stroke:none;stroke-width:2.80599999;stroke-miterlimit:4;stroke-dasharray:none;stroke-opacity:1"
       id="rect7045"
       width="56.428574"
       height="115.35714"
       x="-329.85715"
       y="-195.99495" />
    <rect
       style="opacity:1;fill:#418c90;fill-opacity:1;stroke:none;stroke-width:2.80599999;stroke-miterlimit:4;stroke-dasharray:none;stroke-opacity:1"
       id="rect7045-7"
       width="56.428574"
       height="115.35714"
       x="-182.42856"
       y="-190.53065" />
    <rect
       style="opacity:1;fill:#418c90;fill-opacity:1;stroke:none;stroke-width:2.80599999;stroke-miterlimit:4;stroke-dasharray:none;stroke-opacity:1"
       id="rect7062"
       width="22.142857"
       height="27.5"
       x="-279.99997"
       y="-195.49495" />
    <rect
       style="opacity:1;fill:#418c90;fill-opacity:1;stroke:none;stroke-width:2.80599999;stroke-miterlimit:4;stroke-dasharray:none;stroke-opacity:1"
       id="rect7062-5"
       width="22.142857"
       height="27.5"
       x="-197.85715"
       y="-193.53065" />
  </g>
</svg>
