<?xml version="1.0" encoding="UTF-8" standalone="no"?>
<!-- Generator: Adobe Illustrator 18.0.0, SVG Export Plug-In . SVG Version: 6.00 Build 0)  -->

<svg
   xmlns:dc="http://purl.org/dc/elements/1.1/"
   xmlns:cc="http://creativecommons.org/ns#"
   xmlns:rdf="http://www.w3.org/1999/02/22-rdf-syntax-ns#"
   xmlns:svg="http://www.w3.org/2000/svg"
   xmlns="http://www.w3.org/2000/svg"
   xmlns:sodipodi="http://sodipodi.sourceforge.net/DTD/sodipodi-0.dtd"
   xmlns:inkscape="http://www.inkscape.org/namespaces/inkscape"
   version="1.1"
   id="Capa_1"
   x="0px"
   y="0px"
   viewBox="0 0 182.492 182.492"
   style="enable-background:new 0 0 182.492 182.492;"
   xml:space="preserve"
   width="512px"
   height="512px"
   inkscape:version="0.91 r13725"
   sodipodi:docname="site-logo.svg"
   inkscape:export-filename="/home/rbk/Downloads/rk/t1new.png"
   inkscape:export-xdpi="90"
   inkscape:export-ydpi="90"><metadata
     id="metadata39"><rdf:RDF><cc:Work
         rdf:about=""><dc:format>image/svg+xml</dc:format><dc:type
           rdf:resource="http://purl.org/dc/dcmitype/StillImage" /></cc:Work></rdf:RDF></metadata><defs
     id="defs37"><clipPath
       clipPathUnits="userSpaceOnUse"
       id="clipPath5936"><rect
         style="fill:#ff7f2a;fill-opacity:1;stroke:none;stroke-width:2.80599999;stroke-miterlimit:4;stroke-dasharray:none"
         id="rect5938"
         width="150.01462"
         height="136.869"
         x="70.367676"
         y="-44.076458" /></clipPath><clipPath
       clipPathUnits="userSpaceOnUse"
       id="clipPath5972"><rect
         style="fill:#ff7f2a;fill-opacity:1;stroke:none;stroke-width:2.80599999;stroke-miterlimit:4;stroke-dasharray:none"
         id="rect5974"
         width="146.14825"
         height="136.869"
         x="-443.85767"
         y="-225.02191" /></clipPath><clipPath
       clipPathUnits="userSpaceOnUse"
       id="clipPath6015"><rect
         style="fill:#ff7f2a;fill-opacity:1;stroke:none;stroke-width:2.80599999;stroke-miterlimit:4;stroke-dasharray:none"
         id="rect6017"
         width="133.00266"
         height="156.97406"
         x="-435.35165"
         y="-93.565811" /></clipPath><clipPath
       clipPathUnits="userSpaceOnUse"
       id="clipPath6036"><rect
         style="fill:#ff7f2a;fill-opacity:1;stroke:none;stroke-width:2.80599999;stroke-miterlimit:4;stroke-dasharray:none"
         id="rect6038"
         width="106.71143"
         height="74.234032"
         x="-358.79782"
         y="-88.926186" /></clipPath><clipPath
       clipPathUnits="userSpaceOnUse"
       id="clipPath6054"><rect
         style="fill:#ff7f2a;fill-opacity:1;stroke:none;stroke-width:2.80599999;stroke-miterlimit:4;stroke-dasharray:none"
         id="rect6056"
         width="114.20152"
         height="117.53723"
         x="97.49054"
         y="-7.7326913" /></clipPath></defs><sodipodi:namedview
     pagecolor="#ffffff"
     bordercolor="#666666"
     borderopacity="1"
     objecttolerance="10"
     gridtolerance="10"
     guidetolerance="10"
     inkscape:pageopacity="0"
     inkscape:pageshadow="2"
     inkscape:window-width="1855"
     inkscape:window-height="1056"
     id="namedview35"
     showgrid="true"
     inkscape:zoom="3.6875"
     inkscape:cx="273.61673"
     inkscape:cy="230.26788"
     inkscape:window-x="65"
     inkscape:window-y="24"
     inkscape:window-maximized="1"
     inkscape:current-layer="Capa_1" /><g
     id="g5"
     style="fill:#57babf;fill-opacity:1" /><g
     id="g7"
     style="fill:#57babf;fill-opacity:1" /><g
     id="g9"
     style="fill:#57babf;fill-opacity:1" /><g
     id="g11"
     style="fill:#57babf;fill-opacity:1" /><g
     id="g13"
     style="fill:#57babf;fill-opacity:1" /><g
     id="g15"
     style="fill:#57babf;fill-opacity:1" /><g
     id="g17"
     style="fill:#57babf;fill-opacity:1" /><g
     id="g19"
     style="fill:#57babf;fill-opacity:1" /><g
     id="g21"
     style="fill:#57babf;fill-opacity:1" /><g
     id="g23"
     style="fill:#57babf;fill-opacity:1" /><g
     id="g25"
     style="fill:#57babf;fill-opacity:1" /><g
     id="g27"
     style="fill:#57babf;fill-opacity:1" /><g
     id="g29"
     style="fill:#57babf;fill-opacity:1" /><g
     id="g31"
     style="fill:#57babf;fill-opacity:1" /><g
     id="g33"
     style="fill:#57babf;fill-opacity:1" /><path
     inkscape:connector-curvature="0"
     style="fill:#2f6669;fill-opacity:1"
     d="m 124.49581,59.794618 c -3.86852,-7.07706 -7.93283,-10.373155 -12.79017,-10.373155 -3.14482,0 -6.19652,1.369561 -9.14241,2.691229 l -0.0975,0.04358 c -3.142841,1.40131 -6.111305,2.725667 -9.31439,2.725667 -3.209821,0 -6.355836,-1.433598 -9.417831,-2.827914 -3.003739,-1.356645 -6.109326,-2.758495 -9.218098,-2.758495 -4.881508,0 -8.850298,3.362826 -12.488144,10.579256 -5.722518,11.316512 -2.473458,23.434838 0.147429,33.207963 1.167167,4.348157 2.269353,8.454688 2.269353,11.555438 0,15.92083 2.472656,42.86378 11.740685,42.86378 6.342762,0 8.294255,-10.00666 10.02064,-18.86012 1.833,-9.32002 3.420273,-15.91706 7.171084,-15.91706 3.235978,0 4.474091,4.27121 6.190568,14.51037 1.485414,8.946 3.333874,20.07847 11.129184,20.07847 10.87711,0 11.72246,-32.68006 11.72246,-42.69589 0,-2.93985 1.06571,-7.011935 2.19444,-11.323503 l 0.0448,-0.1722 c 2.59673,-9.97439 5.82834,-22.387077 -0.16209,-33.327426 z m -5.44273,30.636738 -0.0412,0.159282 c -1.3051,4.985852 -2.53766,9.695102 -2.53766,14.026562 0,9.50623 -0.73638,18.72076 -2.02086,25.2812 -1.50048,7.66418 -3.22093,9.34265 -3.75715,9.34265 -2.38746,0 -3.53323,-2.96246 -5.33612,-13.81996 -1.46951,-8.76519 -3.48166,-20.76944 -11.983582,-20.76944 -8.605776,0 -11.096273,12.66131 -12.922529,21.94851 -0.996361,5.10855 -2.501592,12.82868 -4.268809,12.82868 -0.274249,0 -2.001029,-1.61871 -3.581963,-9.31141 -1.406952,-6.84513 -2.213469,-16.13231 -2.213469,-25.4803 0,-4.52575 -1.276958,-9.28289 -2.63753,-14.35215 -2.366446,-8.824922 -4.813351,-17.950675 -0.820787,-25.846235 3.140071,-6.231104 5.596084,-7.07114 7.584039,-7.07114 2.14649,0 4.670283,1.139247 7.346263,2.347366 3.332288,1.518082 7.108851,3.239049 11.289271,3.239049 4.153867,0 7.881296,-1.661774 11.169606,-3.128196 l 0.10264,-0.04572 c 2.61971,-1.175824 5.09475,-2.286007 7.28245,-2.286007 2.04147,0 4.59063,0.844873 8.01803,7.114718 4.10234,7.490892 1.67606,16.810362 -0.67058,25.822565 z"
     id="path3-5-3" /><path
     inkscape:connector-curvature="0"
     style="fill:#418c90;fill-opacity:1"
     d="m 141.99541,41.755025 c -6.0782,-9.918993 -12.46403,-14.538699 -20.09584,-14.538699 -4.94116,0 -9.73598,1.919542 -14.36454,3.771946 l -0.1532,0.0611 c -4.93802,1.964036 -9.602068,3.820214 -14.634737,3.820214 -5.043258,0 -9.986264,-2.009291 -14.797262,-3.963521 -4.719455,-1.901437 -9.598936,-3.866225 -14.483428,-3.866225 -7.669803,0 -13.905566,4.713237 -19.621328,14.827574 -8.991207,15.860886 -3.886293,32.845581 0.23163,46.543313 1.833861,6.094239 3.5656,11.849848 3.5656,16.195768 0,22.31415 3.885043,60.07661 18.446935,60.07661 9.965716,0 13.031907,-14.02507 15.744384,-26.43381 2.880016,-13.06265 5.373932,-22.30887 11.267192,-22.30887 5.084334,0 7.029674,5.98639 9.726574,20.3373 2.33389,12.53845 5.23818,28.14139 17.48613,28.14139 17.09007,0 18.41829,-45.80341 18.41829,-59.84129 0,-4.1204 1.67443,-9.827719 3.44788,-15.870685 l 0.0703,-0.241352 c 4.07997,-13.979819 9.15747,-31.377083 -0.25468,-46.710757 z m -8.55159,42.939559 -0.0648,0.223259 c -2.05054,6.988016 -3.98715,13.588349 -3.98715,19.659217 0,13.32363 -1.15698,26.23845 -3.17516,35.43336 -2.35755,10.74188 -5.0607,13.09437 -5.90323,13.09437 -3.75115,0 -5.5514,-4.15209 -8.38406,-19.36962 -2.3089,-12.28503 -5.4704,-29.10983 -18.82858,-29.10983 -13.521357,0 -17.434418,17.74572 -20.303824,30.76237 -1.565471,7.16 -3.930488,17.98029 -6.707133,17.98029 -0.430894,0 -3.144012,-2.26873 -5.627969,-13.05058 -2.210612,-9.59392 -3.477798,-22.61058 -3.477798,-35.71244 0,-6.343147 -2.006356,-13.010621 -4.144081,-20.115552 -3.718146,-12.368757 -7.562724,-25.159134 -1.289614,-36.225321 4.933666,-8.73333 8.792541,-9.910697 11.916016,-9.910697 3.372544,0 7.337932,1.596723 11.54243,3.289989 5.235661,2.127708 11.169387,4.539763 17.737651,4.539763 6.526549,0 12.383052,-2.329089 17.549642,-4.384388 l 0.16124,-0.0641 c 4.11609,-1.648013 8.00487,-3.204007 11.44218,-3.204007 3.20753,0 7.21277,1.184156 12.59792,9.97179 6.44555,10.499006 2.63342,23.560909 -1.05363,36.19214 z"
     id="path3-5-3-9" /><path
     inkscape:connector-curvature="0"
     style="fill:#52babf;fill-opacity:1"
     d="M 161.56237,21.968046 C 153.01452,8.9842076 144.03405,2.93708 133.30134,2.93708 c -6.94879,0 -13.69181,2.5126601 -20.20102,4.937442 l -0.21546,0.079872 c -6.94438,2.570888 -13.503475,5.000589 -20.580981,5.000589 -7.092397,0 -14.04382,-2.630124 -20.809572,-5.1881819 -6.637023,-2.4889584 -13.4991,-5.0608445 -20.36822,-5.0608445 -10.78613,0 -19.555556,6.1695556 -27.593708,19.4091084 -12.644437,20.761662 -5.465331,42.994432 0.325753,60.924576 2.578965,7.977266 5.014353,15.511278 5.014353,21.200039 0,29.20891 5.463562,78.63945 25.942117,78.63945 14.01492,0 18.326933,-18.35862 22.141541,-34.60147 4.050179,-17.09883 7.557406,-29.20202 15.845174,-29.20202 7.150166,0 9.885923,7.8361 13.678593,26.62127 3.28218,16.41266 7.36653,36.83668 24.59096,36.83668 24.03396,0 25.90187,-59.95606 25.90187,-78.33143 0,-5.393563 2.35476,-12.864363 4.84879,-20.774525 l 0.0989,-0.315926 C 167.65815,64.81232 174.7987,42.03951 161.56228,21.967939 Z m -12.02621,56.207303 -0.0912,0.292247 c -2.8837,9.147229 -5.60719,17.786963 -5.60719,25.733664 0,17.44043 -1.62708,34.34579 -4.46527,46.38181 -3.31543,14.06094 -7.11695,17.14036 -8.30177,17.14036 -5.27529,0 -7.80699,-5.43506 -11.79061,-25.35459 -3.24704,-16.08093 -7.69307,-38.10438 -26.478845,-38.10438 -19.01524,0 -24.518229,23.22887 -28.553507,40.26753 -2.201555,9.3723 -5.527505,23.53596 -9.432328,23.53596 -0.605982,0 -4.421469,-2.96973 -7.914675,-17.08303 -3.108795,-12.55833 -4.890875,-29.59695 -4.890875,-46.74714 0,-8.303093 -2.821557,-17.030705 -5.827862,-26.330955 C 30.953198,61.716269 25.546535,44.973854 34.368474,30.488353 41.306745,19.056533 46.73354,17.515374 51.126109,17.515374 c 4.742871,0 10.319416,2.090085 16.232243,4.306542 7.362998,2.785151 15.707674,5.942506 24.944692,5.942506 9.178346,0 17.414436,-3.048755 24.680266,-5.739102 l 0.22675,-0.08388 c 5.78851,-2.157232 11.25733,-4.193998 16.09128,-4.193998 4.5108,0 10.14339,1.550035 17.7166,13.052925 9.06446,13.743044 3.7034,30.84092 -1.48172,47.375025 z"
     id="path3-5-3-9-1-0" /><path
     style="opacity:1;fill:#2f6669;fill-opacity:1;stroke:none;stroke-width:2.80599999;stroke-miterlimit:4;stroke-dasharray:none;stroke-opacity:1"
     d="m 320.74227,344.21857 c -3.03179,-8.55927 -8.88646,-20.13894 -13.3656,-26.43516 -11.46717,-16.11912 -24.86597,-23.99505 -43.19511,-25.39047 -16.51167,-1.25705 -31.53708,4.41855 -43.68395,16.50088 -6.85498,6.81857 -11.39816,13.06731 -16.66698,22.92393 l -3.81188,7.13105 -0.46711,-5.21347 c -0.25691,-2.86742 -0.8236,-14.53291 -1.2593,-25.92332 -0.4357,-11.39041 -1.16212,-23.47115 -1.61425,-26.84609 -0.45213,-3.37494 -3.19009,-15.45567 -6.08436,-26.84609 -7.29667,-28.71608 -7.95793,-32.49343 -7.98943,-45.63835 -0.0321,-13.38015 0.9593,-17.80175 6.44904,-28.76366 4.42997,-8.84578 8.81617,-14.33088 13.28137,-16.60886 2.57418,-1.31324 4.11035,-1.53642 8.59457,-1.24864 4.62576,0.29686 7.38688,1.17516 18.0685,5.7475 14.51017,6.21119 18.25335,7.48864 25.57371,8.72762 10.27926,1.73979 19.80439,-0.25608 37.43042,-7.84306 16.02624,-6.89838 21.45179,-8.04794 27.01428,-5.72378 8.4176,3.5171 18.77693,19.3398 21.49607,32.83278 2.63282,13.06469 1.24461,25.4864 -6.18642,55.35616 -7.18295,28.87258 -7.21299,29.0696 -7.98706,52.39246 -0.56068,16.89337 -2.61831,46.09536 -3.29571,46.77275 -0.0851,0.0851 -1.12044,-2.5718 -2.3008,-5.90418 z"
     id="path4160"
     inkscape:connector-curvature="0"
     transform="scale(0.3564297,0.3564297)" /><path
     style="opacity:1;fill:#418c90;fill-opacity:1;stroke:none;stroke-width:2.80599999;stroke-miterlimit:4;stroke-dasharray:none;stroke-opacity:1"
     d="m 340.13197,423.11035 c -0.4751,-1.76439 -2.31743,-10.18607 -4.09407,-18.71487 -2.88469,-13.84797 -3.12746,-15.80383 -2.2693,-18.28257 5.08257,-14.68063 8.86364,-45.96523 9.88065,-81.75254 0.52322,-18.41139 1.11262,-22.33183 6.51524,-43.33726 9.85205,-38.30485 11.29147,-57.94524 5.69149,-77.6589 -5.06093,-17.81607 -18.26064,-36.39716 -29.87643,-42.05672 -4.19481,-2.04383 -5.3151,-2.24232 -12.65601,-2.24232 -9.21576,0 -11.09272,0.51005 -26.84609,7.29523 -13.53535,5.82984 -17.39493,6.89485 -24.98694,6.89485 -7.66026,0 -12.82165,-1.48923 -27.1318,-7.82842 -18.63001,-8.25281 -27.17759,-9.26563 -37.48598,-4.44175 -9.0632,4.24118 -18.53084,16.01158 -25.09904,31.20373 -5.66351,13.09961 -7.9195,28.28159 -6.56236,44.16232 1.07005,12.52147 2.2793,18.66465 8.49141,43.13792 6.06776,23.90461 6.92003,29.11853 6.93628,42.43397 0.0225,18.45827 1.79195,39.24044 5.07995,59.66481 l 1.98914,12.35615 -4.77504,19.47564 c -2.62627,10.7116 -5.02154,20.51114 -5.32282,21.77674 -0.49689,2.08725 -0.77107,1.62394 -2.95047,-4.9857 -8.03565,-24.37035 -12.43674,-55.44292 -13.95118,-98.49818 -1.30122,-36.99346 -1.51704,-38.31857 -12.21018,-74.97047 -9.21855,-31.59756 -11.45477,-41.73815 -12.7442,-57.79122 -0.56776,-7.06838 0.60593,-20.11075 2.41448,-26.83046 4.33345,-16.1011 18.02668,-35.92426 28.69306,-41.53783 3.80444,-2.00223 4.86249,-2.1964 11.84782,-2.17422 7.11471,0.0226 8.39259,0.27868 17.64172,3.53536 5.48427,1.93104 15.32144,5.60602 21.86038,8.1666 20.52502,8.03739 33.74772,10.52198 49.17593,9.24032 10.55445,-0.87678 22.69182,-4.25324 41.85085,-11.64235 9.2076,-3.55111 19.20393,-7.05256 22.21409,-7.78099 7.67146,-1.85643 17.01357,-1.39351 22.09054,1.09463 8.41454,4.12383 21.04045,19.04733 26.96672,31.87397 4.45971,9.65245 5.92697,17.3851 5.89535,31.06927 -0.0408,17.64508 -1.80202,26.52586 -13.23435,66.7317 -9.24535,32.51457 -10.71834,41.24059 -10.74671,63.66358 -0.0481,38.03528 -5.47336,81.32073 -13.10791,104.58189 -2.52683,7.69878 -6.99494,17.37605 -8.02275,17.37605 -0.16371,0 -0.68637,-1.44358 -1.16147,-3.20796 z"
     id="path4162"
     inkscape:connector-curvature="0"
     transform="scale(0.3564297,0.3564297)" /><path
     style="opacity:1;fill:#52babf;fill-opacity:1;stroke:none;stroke-width:2.80599999;stroke-miterlimit:4;stroke-dasharray:none;stroke-opacity:1"
     d="m 149.74531,467.54623 c -13.58305,-17.00162 -24.60195,-62.1304 -29.35655,-120.23212 -0.63867,-7.80454 -1.48262,-25.92565 -1.87546,-40.26913 -1.03043,-37.6237 -1.86648,-41.87993 -18.50132,-94.18829 -12.475389,-39.22895 -16.083482,-56.72603 -16.086575,-78.01019 -0.0024,-16.53419 3.014364,-30.58079 9.199116,-42.832716 6.755602,-13.382772 20.373449,-30.149982 29.361699,-36.152106 7.22126,-4.822175 13.57484,-6.431424 23.50182,-5.952595 9.86123,0.475658 18.29217,2.575685 34.63912,8.628106 41.87536,15.504268 57.81034,19.501623 77.87377,19.534959 21.19004,0.03521 30.14226,-2.184682 83.20276,-20.631851 15.80543,-5.494964 22.79226,-6.973012 32.85805,-6.951038 12.65173,0.02762 21.23793,4.165302 32.7231,15.769265 10.83818,10.950262 20.9243,26.451524 24.78325,38.089126 3.96789,11.9661 4.96776,19.70682 4.53403,35.10104 -0.60414,21.44249 -3.74817,35.79922 -17.80533,81.30529 -13.84675,44.82494 -14.82513,50.07006 -15.73835,84.37342 -0.98915,37.15604 -2.73888,60.01461 -6.6052,86.291 -5.50334,37.40185 -14.46258,65.54739 -24.08476,75.66239 -2.27285,2.38928 -3.3581,2.95829 -5.64215,2.95829 -4.13282,0 -7.35422,-1.62815 -10.9372,-5.52784 -4.98026,-5.4205 -4.95581,-6.04628 0.43119,-11.03368 16.51035,-15.28568 26.93135,-51.78598 31.51459,-110.38212 0.46196,-5.90614 1.1521,-21.43852 1.53365,-34.5164 0.80467,-27.58073 0.85449,-27.88435 9.56498,-58.29436 9.56456,-33.3917 12.45789,-46.52765 14.27601,-64.81413 3.47373,-34.93828 -7.82667,-66.90707 -32.26468,-91.276698 -13.30829,-13.271054 -23.37989,-17.861157 -39.14118,-17.83848 -11.09176,0.01596 -17.76051,1.684496 -38.35156,9.595646 -24.88641,9.561441 -31.60838,11.319546 -43.19565,11.29764 -11.54779,-0.02183 -17.74506,-1.679787 -43.20833,-11.55952 -8.49948,-3.297794 -18.33665,-6.751683 -21.86039,-7.675311 -8.77927,-2.301191 -21.64995,-2.826837 -28.28175,-1.155041 -14.51239,3.658391 -26.80197,13.696709 -38.54692,31.485714 -18.37953,27.83778 -23.38463,56.35905 -16.56318,94.38425 2.02363,11.28044 4.78642,21.99115 12.1365,47.05044 7.93222,27.04403 9.03089,33.15671 9.60341,53.43063 0.81451,28.84324 2.49967,49.93426 5.80681,72.67634 5.16207,35.49776 14.82952,63.90801 25.79693,75.81079 l 1.82826,1.9842 -3.50051,6.99262 c -5.43311,10.85318 -9.00286,12.65415 -13.622,6.87246 z"
     id="path4164"
     inkscape:connector-curvature="0"
     transform="scale(0.3564297,0.3564297)" /><rect
     style="opacity:1;fill:#52babf;fill-opacity:1;stroke:none;stroke-width:2.80599999;stroke-miterlimit:4;stroke-dasharray:none;stroke-opacity:1"
     id="rect4166"
     width="10.63248"
     height="67.274597"
     x="27.644445"
     y="20.298368" /><rect
     style="opacity:1;fill:#52babf;fill-opacity:1;stroke:none;stroke-width:2.80599999;stroke-miterlimit:4;stroke-dasharray:none;stroke-opacity:1"
     id="rect4166-3"
     width="10.63248"
     height="67.274597"
     x="148.23851"
     y="20.105051" /><rect
     style="opacity:1;fill:#52babf;fill-opacity:1;stroke:none;stroke-width:2.80599999;stroke-miterlimit:4;stroke-dasharray:none;stroke-opacity:1"
     id="rect4166-3-6"
     width="6.7661238"
     height="69.207779"
     x="140.44539"
     y="96.078949" /><rect
     style="opacity:1;fill:#52babf;fill-opacity:1;stroke:none;stroke-width:2.80599999;stroke-miterlimit:4;stroke-dasharray:none;stroke-opacity:1"
     id="rect4166-3-6-7"
     width="6.7661242"
     height="69.207779"
     x="38.953541"
     y="98.205444" /><rect
     style="opacity:1;fill:#52babf;fill-opacity:1;stroke:none;stroke-width:2.80599999;stroke-miterlimit:4;stroke-dasharray:none;stroke-opacity:1"
     id="rect4213"
     width="116.57063"
     height="9.6658907"
     x="34.603886"
     y="16.758238" /><rect
     style="opacity:1;fill:#52babf;fill-opacity:1;stroke:none;stroke-width:2.80599999;stroke-miterlimit:4;stroke-dasharray:none;stroke-opacity:1"
     id="rect4215"
     width="30.737532"
     height="8.5059834"
     x="76.106804"
     y="20.878323" /><rect
     style="opacity:1;fill:#52babf;fill-opacity:1;stroke:none;stroke-width:2.80599999;stroke-miterlimit:4;stroke-dasharray:none;stroke-opacity:1"
     id="rect4219"
     width="6.379488"
     height="19.525097"
     x="35.763794"
     y="81.966743" /><rect
     style="opacity:1;fill:#52babf;fill-opacity:1;stroke:none;stroke-width:2.80599999;stroke-miterlimit:4;stroke-dasharray:none;stroke-opacity:1"
     id="rect4219-5"
     width="6.379488"
     height="19.525097"
     x="35.667133"
     y="89.216171" /><rect
     style="opacity:1;fill:#52babf;fill-opacity:1;stroke:none;stroke-width:2.80599999;stroke-miterlimit:4;stroke-dasharray:none;stroke-opacity:1"
     id="rect4219-5-3"
     width="6.379488"
     height="19.525097"
     x="144.11842"
     y="82.450043" /><rect
     style="opacity:1;fill:#52babf;fill-opacity:1;stroke:none;stroke-width:2.80599999;stroke-miterlimit:4;stroke-dasharray:none;stroke-opacity:1"
     id="rect4251"
     width="10.052526"
     height="28.031082"
     x="40.790058"
     y="144.02177" /><rect
     style="opacity:1;fill:#52babf;fill-opacity:1;stroke:none;stroke-width:2.80599999;stroke-miterlimit:4;stroke-dasharray:none;stroke-opacity:1"
     id="rect4251-5"
     width="10.052526"
     height="28.03108"
     x="136.28905"
     y="142.95853" /><rect
     style="opacity:1;fill:#52babf;fill-opacity:1;stroke:none;stroke-width:2.80599999;stroke-miterlimit:4;stroke-dasharray:none;stroke-opacity:1"
     id="rect4270"
     width="16.625332"
     height="9.8592081"
     x="46.396275"
     y="162.19363" /><rect
     style="opacity:1;fill:#52babf;fill-opacity:1;stroke:none;stroke-width:2.80599999;stroke-miterlimit:4;stroke-dasharray:none;stroke-opacity:1"
     id="rect4270-6"
     width="16.625332"
     height="9.8592081"
     x="124.11003"
     y="162.67694" /><rect
     style="opacity:1;fill:#52babf;fill-opacity:1;stroke:none;stroke-width:2.80599999;stroke-miterlimit:4;stroke-dasharray:none;stroke-opacity:1"
     id="rect4287"
     width="5.4128985"
     height="9.0859365"
     x="132.80933"
     y="158.32727" /><rect
     style="opacity:1;fill:#52babf;fill-opacity:1;stroke:none;stroke-width:2.80599999;stroke-miterlimit:4;stroke-dasharray:none;stroke-opacity:1"
     id="rect4287-2"
     width="5.4128985"
     height="9.0859365"
     x="144.98836"
     y="23.681435" /><rect
     style="opacity:1;fill:#418c90;fill-opacity:1;stroke:none;stroke-width:2.80599999;stroke-miterlimit:4;stroke-dasharray:none;stroke-opacity:1"
     id="rect4313"
     width="83.319969"
     height="10.245843"
     x="52.582443"
     y="38.083607" /><rect
     style="opacity:1;fill:#418c90;fill-opacity:1;stroke:none;stroke-width:2.80599999;stroke-miterlimit:4;stroke-dasharray:none;stroke-opacity:1"
     id="rect4315"
     width="10.439161"
     height="40.790058"
     x="45.429684"
     y="44.885975" /><rect
     style="opacity:1;fill:#418c90;fill-opacity:1;stroke:none;stroke-width:2.80599999;stroke-miterlimit:4;stroke-dasharray:none;stroke-opacity:1"
     id="rect4315-9"
     width="10.439161"
     height="40.790058"
     x="129.71625"
     y="47.846157" /><rect
     style="opacity:1;fill:#418c90;fill-opacity:1;stroke:none;stroke-width:2.80599999;stroke-miterlimit:4;stroke-dasharray:none;stroke-opacity:1"
     id="rect4315-9-1"
     width="10.439161"
     height="40.790058"
     x="126.62317"
     y="89.02285" /><rect
     style="opacity:1;fill:#418c90;fill-opacity:1;stroke:none;stroke-width:2.80599999;stroke-miterlimit:4;stroke-dasharray:none;stroke-opacity:1"
     id="rect4315-9-1-2"
     width="10.439161"
     height="40.790058"
     x="48.909409"
     y="85.156494" /><rect
     style="opacity:1;fill:#418c90;fill-opacity:1;stroke:none;stroke-width:2.80599999;stroke-miterlimit:4;stroke-dasharray:none;stroke-opacity:1"
     id="rect4362"
     width="7.9260297"
     height="25.904585"
     x="55.288891"
     y="122.6239" /><rect
     style="opacity:1;fill:#418c90;fill-opacity:1;stroke:none;stroke-width:2.80599999;stroke-miterlimit:4;stroke-dasharray:none;stroke-opacity:1"
     id="rect4362-7"
     width="7.9260297"
     height="25.904585"
     x="122.08019"
     y="126.81648" /><rect
     style="opacity:1;fill:#2f6669;fill-opacity:1;stroke:none;stroke-width:2.80599999;stroke-miterlimit:4;stroke-dasharray:none;stroke-opacity:1"
     id="rect4379"
     width="57.275761"
     height="45.79327"
     x="64.657364"
     y="57.004776" /><rect
     style="opacity:1;fill:#2f6669;fill-opacity:1;stroke:none;stroke-width:2.80599999;stroke-miterlimit:4;stroke-dasharray:none;stroke-opacity:1"
     id="rect4381"
     width="4.5109787"
     height="23.511768"
     x="115.02037"
     y="101.44128" /><rect
     style="opacity:1;fill:#2f6669;fill-opacity:1;stroke:none;stroke-width:2.80599999;stroke-miterlimit:4;stroke-dasharray:none;stroke-opacity:1"
     id="rect4381-0"
     width="4.5109787"
     height="23.511766"
     x="66.639458"
     y="97.603584" /><rect
     style="opacity:1;fill:#2f6669;fill-opacity:1;stroke:none;stroke-width:2.80599999;stroke-miterlimit:4;stroke-dasharray:none;stroke-opacity:1"
     id="rect4398"
     width="5.0262628"
     height="6.5728054"
     x="119.4704"
     y="70.657654" /></svg>