<?xml version="1.0" encoding="UTF-8" standalone="no"?>
<!-- Created with Inkscape (http://www.inkscape.org/) -->

<svg
   xmlns:dc="http://purl.org/dc/elements/1.1/"
   xmlns:cc="http://creativecommons.org/ns#"
   xmlns:rdf="http://www.w3.org/1999/02/22-rdf-syntax-ns#"
   xmlns:svg="http://www.w3.org/2000/svg"
   xmlns="http://www.w3.org/2000/svg"
   xmlns:sodipodi="http://sodipodi.sourceforge.net/DTD/sodipodi-0.dtd"
   xmlns:inkscape="http://www.inkscape.org/namespaces/inkscape"
   width="64"
   height="64"
   id="svg8264"
   version="1.1"
   inkscape:version="0.91 r13725"
   viewBox="0 0 64 64"
   sodipodi:docname="site-logo4.svg">
  <defs
     id="defs8266" />
  <sodipodi:namedview
     id="base"
     pagecolor="#ffffff"
     bordercolor="#666666"
     borderopacity="1.0"
     inkscape:pageopacity="0.0"
     inkscape:pageshadow="2"
     inkscape:zoom="7.7781746"
     inkscape:cx="15.956536"
     inkscape:cy="19.965389"
     inkscape:current-layer="layer1"
     showgrid="true"
     inkscape:document-units="px"
     inkscape:grid-bbox="true"
     inkscape:window-width="1855"
     inkscape:window-height="1056"
     inkscape:window-x="65"
     inkscape:window-y="24"
     inkscape:window-maximized="1" />
  <metadata
     id="metadata8269">
    <rdf:RDF>
      <cc:Work
         rdf:about="">
        <dc:format>image/svg+xml</dc:format>
        <dc:type
           rdf:resource="http://purl.org/dc/dcmitype/StillImage" />
      </cc:Work>
    </rdf:RDF>
  </metadata>
  <g
     id="layer1"
     inkscape:label="Layer 1"
     inkscape:groupmode="layer">
    <path
       inkscape:connector-curvature="0"
       style="fill:#52babf;fill-opacity:1"
       d="M 57.174742,6.9388743 C 54.057348,2.3261114 50.782181,0.17774745 46.867983,0.17774745 c -2.534224,0 -4.993397,0.89267555 -7.367287,1.75411995 l -0.07855,0.028366 c -2.532614,0.9133555 -4.924698,1.7765506 -7.505863,1.7765506 -2.586581,0 -5.121767,-0.9344009 -7.589226,-1.8431973 -2.42051,-0.884259 -4.923104,-1.79796105 -7.428263,-1.79796105 -3.933688,0 -7.131878,2.19184925 -10.0633871,6.89546855 C 2.224001,14.367084 4.8422106,22.265716 6.9542114,28.635754 c 0.9405384,2.834077 1.8287206,5.51069 1.8287206,7.531733 0,10.377037 1.992557,27.938221 9.461059,27.938221 5.111221,0 6.683814,-6.52226 8.074999,-12.292861 1.477099,-6.074692 2.756164,-10.374593 5.778709,-10.374593 2.607647,0 3.605383,2.783927 4.988562,9.457736 1.197007,5.83091 2.686569,13.086948 8.968297,13.086948 8.765156,0 9.446379,-21.300567 9.446379,-27.828782 0,-1.916172 0.858769,-4.570326 1.768352,-7.380569 l 0.03604,-0.112229 C 59.39785,22.160133 62.00201,14.069641 57.174692,6.9388181 Z m -4.385953,19.9687577 -0.03322,0.103831 c -1.051694,3.249741 -2.044938,6.319166 -2.044938,9.142394 0,6.196057 -0.593392,12.202015 -1.628488,16.478053 -1.209121,4.995427 -2.595539,6.089446 -3.027635,6.089446 -1.923892,0 -2.847198,-1.930908 -4.300024,-9.007714 -1.184194,-5.713074 -2.805656,-13.537335 -9.656801,-13.537335 -6.934835,0 -8.941766,8.252516 -10.413434,14.305835 -0.802899,3.329692 -2.015873,8.36162 -3.439942,8.36162 -0.22101,0 -1.612511,-1.055066 -2.886486,-6.069094 -1.13376,-4.461598 -1.783685,-10.514889 -1.783685,-16.607845 0,-2.949828 -1.029025,-6.050483 -2.125421,-9.354589 C 9.541773,21.060217 7.5699589,15.112143 10.787314,9.9658805 c 2.530379,-4.0613817 4.509533,-4.6089064 6.11148,-4.6089064 1.72973,0 3.763483,0.7425496 5.919893,1.529989 2.685273,0.9894764 5.72857,2.1111874 9.097298,2.1111874 3.34733,0 6.351025,-1.0831311 9.000865,-2.0389237 l 0.0827,-0.029771 c 2.111055,-0.7664035 4.10552,-1.4900047 5.868466,-1.4900047 1.645079,0 3.699276,0.5506795 6.461209,4.6373099 3.305802,4.882493 1.350638,10.956849 -0.540378,16.830917 z"
       id="path3-5-3-9-1-0" />
    <path
       style="opacity:1;fill:#52babf;fill-opacity:1;stroke:none;stroke-width:2.80599999;stroke-miterlimit:4;stroke-dasharray:none;stroke-opacity:1"
       d="M 17.771693,58.423405 C 17.084813,57.67938 16.238027,55.770033 15.611048,53.55155 14.41907,49.333887 13.609721,42.483937 13.599413,36.52602 13.594692,33.797018 13.219696,32.09768 11.378249,26.460529 9.5000127,20.710759 9.0730817,18.630793 9.1740449,15.721864 9.2320796,14.049782 9.4005575,13.126159 9.8658431,11.929314 10.701878,9.7787964 12.56385,7.2928589 14.116252,6.2545491 c 1.027811,-0.6874419 1.68162,-0.8545613 3.107516,-0.794309 1.332155,0.056291 2.154828,0.2513589 4.357181,1.0331523 6.106907,2.167835 7.497999,2.5048995 10.337915,2.5048995 2.355579,0 4.323476,-0.3891049 7.481619,-1.4793127 4.101826,-1.4159718 4.757944,-1.6278516 5.60929,-1.8114034 1.219156,-0.2628526 2.591248,-0.2664086 3.409091,-0.00884 0.986453,0.3106758 1.687693,0.7877185 2.819619,1.9181412 2.215749,2.2128083 3.404448,4.4552292 3.729146,7.0348452 0.148268,1.177941 0.06686,3.327601 -0.179432,4.73793 -0.363656,2.082408 -0.733107,3.403971 -2.590698,9.267178 -1.201304,3.791737 -1.39939,4.904555 -1.505925,8.460094 -0.105937,3.535519 -0.234397,5.781822 -0.460102,8.045455 -0.591902,5.936294 -1.682327,10.341954 -3.095472,12.506675 -0.531148,0.813637 -0.886932,1.069351 -1.38457,0.995138 -1.676913,-0.250079 -2.495899,-2.082194 -3.922363,-8.77454 -0.689092,-3.232922 -1.059109,-4.695606 -1.594388,-6.302645 -1.675114,-5.029108 -4.299509,-7.424628 -8.133997,-7.424628 -3.599666,0 -6.270602,2.205981 -8.175266,6.752121 -0.679661,1.622249 -1.293417,3.662611 -2.24858,7.475152 -1.300902,5.192571 -2.007068,7.219276 -2.809226,8.062519 -0.430257,0.452295 -0.657302,0.446334 -1.095917,-0.02877 z"
       id="path8818"
       inkscape:connector-curvature="0" />
    <rect
       style="opacity:1;fill:#52babf;fill-opacity:1;stroke:none;stroke-width:2.80599999;stroke-miterlimit:4;stroke-dasharray:none;stroke-opacity:1"
       id="rect8822"
       width="9.363636"
       height="22.454546"
       x="13.454545"
       y="-60.181816"
       transform="scale(1,-1)" />
    <rect
       style="opacity:1;fill:#52babf;fill-opacity:1;stroke:none;stroke-width:2.80599999;stroke-miterlimit:4;stroke-dasharray:none;stroke-opacity:1"
       id="rect8822-3"
       width="9.363636"
       height="22.454546"
       x="41.590908"
       y="-59.95454"
       transform="scale(1,-1)" />
    <rect
       style="opacity:1;fill:#52babf;fill-opacity:1;stroke:none;stroke-width:2.80599999;stroke-miterlimit:4;stroke-dasharray:none;stroke-opacity:1"
       id="rect8848"
       width="6"
       height="6"
       x="20.272728"
       y="40.272728" />
    <rect
       style="opacity:1;fill:#52babf;fill-opacity:1;stroke:none;stroke-width:2.80599999;stroke-miterlimit:4;stroke-dasharray:none;stroke-opacity:1"
       id="rect8848-5"
       width="6"
       height="9.818182"
       x="38.18182"
       y="40.090908" />
    <path
       inkscape:connector-curvature="0"
       style="fill:#418c90;fill-opacity:1"
       d="M 54.118637,12.686923 C 51.380672,8.8463945 48.504128,7.0576945 45.066331,7.0576945 c -2.225787,0 -4.385644,0.743228 -6.470609,1.460457 l -0.06901,0.02366 c -2.224366,0.760454 -4.325317,1.4791495 -6.592316,1.4791495 -2.271769,0 -4.49838,-0.7779765 -6.665527,-1.5346335 -2.125913,-0.736218 -4.323907,-1.496964 -6.524164,-1.496964 -3.454911,0 -6.263855,1.824918 -8.8385564,5.7410825 -4.0501514,6.141161 -1.7506117,12.717454 0.1043364,18.021071 0.826075,2.359623 1.60615,4.588134 1.60615,6.27083 0,8.6398 1.75004,23.26102 8.309543,23.26102 4.489128,0 5.870313,-5.430355 7.092165,-10.234888 1.297324,-5.057721 2.420727,-8.637758 5.07539,-8.637758 2.29027,0 3.166561,2.317867 4.381401,7.874387 1.051313,4.854753 2.359571,10.896044 7.876749,10.896044 7.698332,0 8.29664,-17.734591 8.29664,-23.169907 0,-1.595375 0.754257,-3.805187 1.553122,-6.144961 l 0.03166,-0.09344 c 1.837844,-5.412847 4.125043,-12.14888 -0.114736,-18.085918 z m -3.852124,16.625739 -0.02918,0.08644 c -0.923676,2.705686 -1.796035,5.261263 -1.796035,7.611839 0,5.158766 -0.521171,10.159247 -1.430276,13.719419 -1.061977,4.159142 -2.279626,5.070001 -2.659152,5.070001 -1.689725,0 -2.500661,-1.607646 -3.776655,-7.499709 -1.04006,-4.756635 -2.46418,-11.271016 -8.481463,-11.271016 -6.090788,0 -7.853455,6.870952 -9.145995,11.910861 -0.705179,2.772273 -1.770517,6.961775 -3.021277,6.961775 -0.194089,0 -1.416241,-0.878428 -2.53516,-5.053046 -0.995782,-3.714662 -1.566593,-8.754574 -1.566593,-13.827476 0,-2.455998 -0.903779,-5.037572 -1.866727,-7.788524 -1.674867,-4.789052 -3.406686,-9.741347 -0.580919,-14.026057 2.222405,-3.381453 3.96066,-3.837318 5.367652,-3.837318 1.519184,0 3.305418,0.618234 5.199367,1.273849 2.358438,0.823826 5.031324,1.757747 7.990045,1.757747 2.939929,0 5.578032,-0.901799 7.905355,-1.697585 l 0.07266,-0.02483 c 1.854122,-0.638096 3.605847,-1.240558 5.154214,-1.240558 1.444848,0 3.249042,0.45849 5.674821,3.860971 2.903433,4.065099 1.186232,9.122529 -0.474619,14.013207 z"
       id="path3-5-3-9-6" />
    <path
       style="opacity:1;fill:#2f6669;fill-opacity:1;stroke:none;stroke-width:2.80599999;stroke-miterlimit:4;stroke-dasharray:none"
       d="m 74.921764,41.789908 c -1.863223,-0.572645 -3.234247,-3.566953 -3.972574,-8.67608 -0.277202,-1.918184 -0.412259,-3.6435 -0.480117,-6.133327 -0.06597,-2.421037 -0.07847,-2.486208 -1.12351,-5.869786 -1.016713,-3.29181 -1.28163,-4.594878 -1.329715,-6.540616 -0.05644,-2.28371 0.31008,-3.772896 1.3857,-5.6302025 1.318473,-2.276647 2.838466,-3.576116 4.544049,-3.884789 0.484166,-0.08763 1.344144,-0.08611 1.891699,0.0034 0.784228,0.128099 1.328704,0.297482 3.1633,0.984094 2.176417,0.814543 2.9633,1.010361 4.071872,1.013291 1.110719,0.0029 1.949362,-0.200947 4.06358,-0.9879 2.481659,-0.923721 3.111894,-1.070831 4.366905,-1.019316 1.186435,0.0487 2.087084,0.402379 3.103611,1.218764 1.610979,1.293797 3.039379,3.579799 3.497274,5.5970115 0.536747,2.36458 0.290112,4.705123 -0.925746,8.785306 -1.215944,4.080474 -1.170362,3.854496 -1.22866,6.091229 -0.108797,4.174118 -0.39985,6.906817 -1.011585,9.497718 -0.939353,3.978456 -2.45436,5.817255 -4.576875,5.555057 -1.618256,-0.199907 -2.785278,-1.45384 -3.554213,-3.818911 -0.249979,-0.768879 -0.46639,-1.67694 -0.876763,-3.678922 -0.55548,-2.709885 -0.848118,-3.734443 -1.288801,-4.512237 -0.239129,-0.422061 -0.46927,-0.658744 -0.803758,-0.826609 -0.346965,-0.174126 -0.923532,-0.185062 -1.280427,-0.02428 -0.331936,0.149536 -0.768527,0.590692 -1.028597,1.039365 -0.505192,0.871557 -0.876279,2.048006 -1.572893,4.986525 -0.249907,1.054167 -0.557556,2.261665 -0.683669,2.683329 -0.743018,2.484348 -1.685847,3.811314 -2.943637,4.142975 -0.465532,0.122756 -1.01691,0.12471 -1.40645,0.005 z m 0.991987,-3.064194 c 0.33321,-0.299039 0.718687,-1.225024 1.089461,-2.617098 0.07722,-0.289896 0.331628,-1.334017 0.565362,-2.320269 0.448899,-1.894133 0.639293,-2.590057 0.964532,-3.525558 0.882656,-2.538827 2.139336,-3.989082 3.778996,-4.361109 0.397708,-0.09023 1.341194,-0.0905 1.737397,-5.35e-4 1.065614,0.242096 1.948792,0.937032 2.623502,2.064312 0.715779,1.195902 1.125131,2.493074 1.730508,5.483734 0.173376,0.856511 0.401104,1.914003 0.506063,2.349986 0.521095,2.164522 1.040383,3.016673 1.838315,3.016673 0.24373,0 0.460147,-0.194618 0.735215,-0.661155 0.950998,-1.612977 1.629433,-5.212548 1.826118,-9.688834 0.05834,-1.327793 0.110144,-3.679203 0.07811,-3.545828 -0.06946,0.289267 -0.326721,2.67978 -0.467302,4.342412 -0.477668,5.649361 -0.991105,8.084081 -1.882391,8.926307 -0.270451,0.255569 -0.486277,0.327694 -0.671135,0.224291 -0.504253,-0.282066 -0.89111,-1.391441 -1.794277,-5.145387 -1.005988,-4.181318 -1.724291,-5.845589 -2.948472,-6.831485 -0.646192,-0.520412 -1.265779,-0.73602 -2.249183,-0.782685 -1.165435,-0.0553 -1.947537,0.203327 -2.774346,0.917432 -1.252912,1.082127 -2.157191,3.01984 -3.173424,6.800101 -0.658536,2.449663 -1.080462,3.86682 -1.341751,4.506628 -0.150518,0.368573 -0.378861,0.698621 -0.48334,0.698621 -0.274299,0 -0.831201,-1.396075 -1.232867,-3.090621 -0.396068,-1.670943 -0.749166,-4.07217 -1.007587,-6.852078 -0.180078,-1.937141 -0.32178,-3.24041 -0.349729,-3.216551 -0.03439,0.02937 0.08918,3.527022 0.151723,4.294677 0.321006,3.940206 1.012088,7.106172 1.867534,8.555497 0.20665,0.350123 0.483136,0.64449 0.605327,0.64449 0.03871,0 0.163639,-0.08371 0.277644,-0.186021 z M 93.46419,24.549645 c -0.01425,-0.04663 -0.02682,-0.02008 -0.02794,0.05897 -0.0011,0.07905 0.01054,0.1172 0.02588,0.08478 0.01535,-0.03244 0.01631,-0.09712 0.0022,-0.143749 l -3e-6,0 z m 0.0544,-0.408202 c -0.01558,-0.03296 -0.02831,-0.006 -0.02831,0.0599 0,0.06588 0.01277,0.09284 0.02831,0.0599 0.01558,-0.03296 0.01558,-0.08683 0,-0.119794 z m 0.05785,-0.310546 c -0.01424,-0.04663 -0.02682,-0.02008 -0.02795,0.05898 -0.0011,0.07905 0.01054,0.117199 0.02587,0.08478 0.01537,-0.03245 0.0163,-0.09712 0.0022,-0.143749 l -4e-6,0 z m 0.963198,-3.462889 c 1.041655,-3.502276 1.205882,-4.314752 1.210681,-5.989577 0.0035,-1.211217 -0.04475,-1.562453 -0.332036,-2.419788 -0.184315,-0.549997 -0.693014,-1.439913 -1.191476,-2.0843735 -1.133892,-1.465992 -2.09063,-1.98554 -3.371557,-1.830892 -0.636137,0.07679 -1.358108,0.287429 -2.688774,0.784418 -2.766597,1.033299 -3.925435,1.2927825 -5.456755,1.2218585 -1.266861,-0.05868 -2.255295,-0.3130595 -4.489129,-1.1553355 -1.538784,-0.580203 -2.062053,-0.745892 -2.72461,-0.862726 -0.498502,-0.0879 -0.711315,-0.09192 -1.109092,-0.02084 -1.037472,0.185307 -1.931844,1.00528 -2.896197,2.6552735 -0.32837,0.561837 -0.579935,1.180971 -0.744034,1.831158 -0.171544,0.679693 -0.213384,2.277833 -0.08374,3.198976 0.175056,1.243895 0.422466,2.208593 1.247305,4.863536 0.233351,0.751092 0.508103,1.678279 0.610564,2.060414 0.102462,0.382136 0.187924,0.670982 0.189925,0.641883 0.0064,-0.09264 -0.218632,-1.308785 -0.393571,-2.1273 -0.09294,-0.434843 -0.318765,-1.308122 -0.501839,-1.940622 -0.54293,-1.875784 -0.716672,-2.853905 -0.76638,-4.314512 -0.07301,-2.145635 0.354885,-3.732267 1.341149,-4.9728805 0.493073,-0.620237 1.438788,-1.340426 2.09904,-1.59848 0.538063,-0.210299 0.840352,-0.148407 3.192499,0.653651 2.501242,0.852898 3.831017,1.1774385 5.050705,1.2326575 1.08377,0.04906 2.072995,-0.119718 3.797109,-0.6478855 0.50508,-0.154723 1.309813,-0.380802 1.788297,-0.502396 2.211578,-0.562003 3.327464,-0.679625 4.008345,-0.422496 0.473849,0.178943 1.328267,0.957828 1.963724,1.7901285 1.341947,1.757634 1.51514,3.732122 0.651069,7.422517 -0.121085,0.517165 -0.336147,1.347321 -0.477905,1.84479 -0.332382,1.166422 -0.444521,1.62888 -0.643427,2.653446 -0.232545,1.197826 -0.262223,1.564019 -0.06213,0.766666 0.08927,-0.355781 0.441294,-1.584843 0.782262,-2.731248 z"
       id="path5479"
       inkscape:connector-curvature="0" />
    <path
       style="opacity:1;fill:#418c90;fill-opacity:1;stroke:none;stroke-width:2.80599999;stroke-miterlimit:4;stroke-dasharray:none;stroke-opacity:1"
       d="m 19.36766,55.357337 c -1.261825,-1.43714 -2.497233,-5.791115 -3.082846,-10.864938 -0.140871,-1.22052 -0.313008,-3.752263 -0.382527,-5.626096 -0.06952,-1.873833 -0.180951,-3.674249 -0.247627,-4.000925 -0.286736,-1.404855 -0.704837,-2.814033 -1.731023,-5.834288 -1.206422,-3.550721 -1.533392,-4.709356 -1.814066,-6.428243 -0.351132,-2.150381 -0.204047,-4.015137 0.45476,-5.765498 0.654007,-1.737606 2.890608,-4.414125 4.156562,-4.974116 1.691318,-0.748151 2.838204,-0.61559 7.29822,0.843548 4.414368,1.444205 5.424919,1.653756 7.956606,1.649908 2.521528,-0.0038 3.583326,-0.220746 7.759154,-1.585102 1.707518,-0.557892 3.50256,-1.08352 3.988984,-1.168063 2.564703,-0.445756 4.370736,0.385217 6.410038,2.949319 1.574543,1.97974 2.084457,3.469102 2.073829,6.057248 -0.0092,2.231497 -0.317267,3.609626 -1.859508,8.317512 -1.714864,5.234843 -1.780493,5.551764 -1.924997,9.295876 -0.341754,8.85487 -1.511538,14.783377 -3.3593,17.02503 -0.309569,0.375561 -0.465604,0.459704 -0.851756,0.459311 -0.948468,-9e-4 -1.586759,-0.662675 -2.231799,-2.313687 -0.537622,-1.376073 -0.548114,-1.5062 -0.138727,-1.720613 0.753914,-0.394855 1.537564,-1.440204 2.103842,-2.806417 0.907697,-2.18992 1.437024,-5.306355 1.654965,-9.74367 0.143167,-2.914909 0.121537,-2.800975 1.098337,-5.785419 1.504679,-4.597295 1.767802,-6.637762 1.132028,-8.778649 -0.686647,-2.31219 -2.603399,-4.635843 -4.667243,-5.658036 -0.80882,-0.400597 -0.881501,-0.412558 -2.507015,-0.412558 l -1.674047,0 -2.37845,0.747679 c -4.034078,1.268136 -4.686069,1.269852 -8.678129,0.02285 -3.64365,-1.138173 -5.001162,-1.214469 -6.712366,-0.377255 -0.853037,0.417352 -2.328193,1.775396 -2.992783,2.755186 -1.209994,1.783869 -1.66665,3.194143 -1.670609,5.159279 -0.0034,1.669137 0.302349,3.106176 1.29494,6.087032 0.495286,1.487399 0.955349,2.947785 1.022362,3.245305 0.06701,0.29752 0.180626,1.657093 0.252475,3.021275 0.302231,5.738428 1.259628,9.680816 2.83698,11.68217 l 0.362096,0.459429 -0.501688,1.497119 c -0.56549,1.687513 -0.744892,2.074725 -1.226365,2.646923 -0.440323,0.523295 -0.710181,0.505995 -1.223307,-0.07842 z"
       id="path9043"
       inkscape:connector-curvature="0" />
  </g>
</svg>
